<svg width="256" height="256" viewBox="0 0 256 256" fill="none" xmlns="http://www.w3.org/2000/svg">
<path d="M156.11 166.168C161.633 166.168 166.11 170.645 166.11 176.168V182.085C166.11 187.608 161.633 192.085 156.11 192.085H66.5978L69.672 187.578C73.0402 182.639 73.1453 176.19 69.9874 171.157L69.672 170.675L66.5978 166.168H156.11Z" stroke="black" stroke-width="5"/>
<line x1="82.9524" y1="179.731" x2="152.797" y2="179.731" stroke="black" stroke-width="2.5"/>
<path d="M140.243 133.705C145.766 133.705 150.243 138.182 150.243 143.705V151.168C150.243 156.691 145.766 161.168 140.243 161.168H50.6045L54.2168 155.608C57.3433 150.794 57.4407 144.634 54.5098 139.736L54.2168 139.266L50.6045 133.705H140.243Z" stroke="black" stroke-width="5"/>
<line x1="67.0852" y1="148.134" x2="136.93" y2="148.134" stroke="black" stroke-width="2.5"/>
<path d="M153.226 93.5131C158.749 93.5131 163.226 97.9902 163.226 103.513V118.705C163.226 124.228 158.748 128.705 153.226 128.705H65.9503L71.4513 117.928C73.5691 113.779 73.635 108.889 71.6495 104.694L71.4513 104.289L65.9503 93.5131H153.226Z" stroke="black" stroke-width="5"/>
<line x1="82.3824" y1="112.271" x2="150.339" y2="112.271" stroke="black" stroke-width="2.5"/>
<rect x="2.6925" y="2.25834" width="32.564" height="138.108" transform="matrix(0.995633 -0.093349 0.0813675 0.996684 159.784 52.6257)" stroke="black" stroke-width="5"/>
<path d="M183.389 93.9364L188.056 151.102" stroke="black" stroke-width="2.5" stroke-linecap="round"/>
<rect x="1.34625" y="1.12917" width="31.6847" height="11.4809" transform="matrix(0.995633 -0.093349 0.0813675 0.996684 162.755 74.2376)" fill="#04BD04" stroke="black" stroke-width="2.5"/>
<rect x="1.34625" y="1.12917" width="31.6847" height="11.4809" transform="matrix(0.995633 -0.093349 0.0813675 0.996684 169.967 163.897)" fill="#04BD04" stroke="black" stroke-width="2.5"/>
<path d="M52.0227 71V47.7273H61.3409C63.053 47.7273 64.4811 47.9811 65.625 48.4886C66.7689 48.9962 67.6288 49.7008 68.2045 50.6023C68.7803 51.4962 69.0682 52.5265 69.0682 53.6932C69.0682 54.6023 68.8864 55.4015 68.5227 56.0909C68.1591 56.7727 67.6591 57.3333 67.0227 57.7727C66.3939 58.2045 65.6742 58.5114 64.8636 58.6932V58.9205C65.75 58.9583 66.5795 59.2083 67.3523 59.6705C68.1326 60.1326 68.7652 60.7803 69.25 61.6136C69.7348 62.4394 69.9773 63.4242 69.9773 64.5682C69.9773 65.803 69.6705 66.9053 69.0568 67.875C68.4508 68.8371 67.553 69.5985 66.3636 70.1591C65.1742 70.7197 63.7083 71 61.9659 71H52.0227ZM56.9432 66.9773H60.9545C62.3258 66.9773 63.3258 66.7159 63.9545 66.1932C64.5833 65.6629 64.8977 64.9583 64.8977 64.0795C64.8977 63.4356 64.7424 62.8674 64.4318 62.375C64.1212 61.8826 63.678 61.4962 63.1023 61.2159C62.5341 60.9356 61.8561 60.7955 61.0682 60.7955H56.9432V66.9773ZM56.9432 57.4659H60.5909C61.2652 57.4659 61.8636 57.3485 62.3864 57.1136C62.9167 56.8712 63.3333 56.5303 63.6364 56.0909C63.947 55.6515 64.1023 55.125 64.1023 54.5114C64.1023 53.6705 63.803 52.9924 63.2045 52.4773C62.6136 51.9621 61.7727 51.7045 60.6818 51.7045H56.9432V57.4659ZM73.0881 71V53.5455H77.929V71H73.0881ZM75.5199 51.2955C74.8002 51.2955 74.1828 51.0568 73.6676 50.5795C73.16 50.0947 72.9062 49.5152 72.9062 48.8409C72.9062 48.1742 73.16 47.6023 73.6676 47.125C74.1828 46.6402 74.8002 46.3977 75.5199 46.3977C76.2396 46.3977 76.8532 46.6402 77.3608 47.125C77.8759 47.6023 78.1335 48.1742 78.1335 48.8409C78.1335 49.5152 77.8759 50.0947 77.3608 50.5795C76.8532 51.0568 76.2396 51.2955 75.5199 51.2955ZM86.6477 47.7273V71H81.8068V47.7273H86.6477ZM95.3665 47.7273V71H90.5256V47.7273H95.3665ZM113.767 58.5227L109.335 58.7955C109.259 58.4167 109.097 58.0758 108.847 57.7727C108.597 57.4621 108.267 57.2159 107.858 57.0341C107.456 56.8447 106.975 56.75 106.415 56.75C105.665 56.75 105.032 56.9091 104.517 57.2273C104.002 57.5379 103.744 57.9545 103.744 58.4773C103.744 58.8939 103.911 59.2462 104.244 59.5341C104.578 59.822 105.15 60.053 105.96 60.2273L109.119 60.8636C110.816 61.2121 112.081 61.7727 112.915 62.5455C113.748 63.3182 114.165 64.3333 114.165 65.5909C114.165 66.7348 113.828 67.7386 113.153 68.6023C112.487 69.4659 111.57 70.1402 110.403 70.625C109.244 71.1023 107.907 71.3409 106.392 71.3409C104.081 71.3409 102.241 70.8598 100.869 69.8977C99.5057 68.928 98.7064 67.6098 98.4716 65.9432L103.233 65.6932C103.377 66.3977 103.725 66.9356 104.278 67.3068C104.831 67.6705 105.54 67.8523 106.403 67.8523C107.252 67.8523 107.934 67.6894 108.449 67.3636C108.972 67.0303 109.237 66.6023 109.244 66.0795C109.237 65.6402 109.051 65.2803 108.688 65C108.324 64.7121 107.763 64.4924 107.006 64.3409L103.983 63.7386C102.278 63.3977 101.009 62.8068 100.176 61.9659C99.3504 61.125 98.9375 60.053 98.9375 58.75C98.9375 57.6288 99.2405 56.6629 99.8466 55.8523C100.46 55.0417 101.32 54.4167 102.426 53.9773C103.54 53.5379 104.843 53.3182 106.335 53.3182C108.54 53.3182 110.275 53.7841 111.54 54.7159C112.813 55.6477 113.555 56.9167 113.767 58.5227Z" fill="black"/>
</svg>
