<svg width="256" height="256" viewBox="0 0 256 256" fill="none" xmlns="http://www.w3.org/2000/svg">
<rect x="65.5" y="42.5" width="125" height="105" stroke="black" stroke-width="5"/>
<rect x="139.415" y="150.915" width="5" height="46" transform="rotate(-30 139.415 150.915)" stroke="black" stroke-width="5"/>
<rect x="112.415" y="148.415" width="5" height="46" transform="rotate(30 112.415 148.415)" stroke="black" stroke-width="5"/>
<line x1="80.8364" y1="126.747" x2="102.836" y2="88.7474" stroke="#04BD04" stroke-width="5"/>
<path d="M170 54L143.513 65.4785L166.697 82.6779L170 54ZM133.836 102.747L135.844 104.237L158.602 73.5599L156.594 72.0704L154.587 70.5809L131.829 101.258L133.836 102.747Z" fill="#04BD04"/>
<line x1="100.712" y1="90.6037" x2="137.712" y2="101.604" stroke="#04BD04" stroke-width="5"/>
<path d="M178.625 114.104C177.75 113.25 175.125 111.542 170.75 111.542C164.394 111.542 161.458 115.437 160.562 120.083M178.625 132.896C177.75 133.75 175.125 135.458 170.75 135.458C164.394 135.458 161.458 131.563 160.562 126.917M160.562 120.083C160.348 121.194 160.25 122.347 160.25 123.5C160.25 124.653 160.348 125.806 160.562 126.917M160.562 120.083H155M160.562 120.083H172.5M160.562 126.917H155H172.5" stroke="black" stroke-width="5"/>
</svg>
