<svg width="300" height="71" viewBox="0 0 300 71" fill="none" xmlns="http://www.w3.org/2000/svg">
<path d="M35.5544 59.842C35.6343 58.8269 36.4888 58.0436 37.8225 56.7968C40.402 54.3749 41.1048 53.5917 41.568 50.3865L44.5388 29.5973C45.8645 20.1418 41.9593 16.625 32.7433 16.625C24.5415 16.625 18.5279 20.6853 17.0505 28.1106C16.188 32.4107 17.0505 36.7828 20.0932 36.7828C25.5557 36.7828 21.1075 22.9473 31.9606 22.9473C36.0176 22.9473 38.5971 26.8558 37.5829 32.4827C36.0176 40.8431 27.9037 45.8466 20.0134 45.8466C10.0945 45.8546 3.92923 37.8059 6.03758 27.1755C8.53724 15.0584 20.2529 7.00964 35.3228 7.00964H75.3814C87.8717 7.00964 95.6023 14.2032 94.1249 25.1373C93.1905 31.4676 89.437 38.0297 83.1918 42.0181C78.504 45.0633 73.6644 46.4701 61.5653 46.4701C60.2396 46.4701 59.6167 47.0935 59.3771 48.4203L59.0657 50.3706C58.5945 53.5757 59.1455 54.359 61.0941 56.7808C62.1084 58.0277 62.6594 58.811 62.5796 59.826C62.2681 62.3278 57.9716 63.2629 48.5239 63.2629C39.0763 63.2629 35.243 62.3438 35.5544 59.842ZM62.883 36.8627H64.9115C70.0626 36.8627 73.7362 32.8743 74.6706 26.3122C75.6849 19.1187 72.2508 16.617 67.6428 16.617H65.6942C64.3685 16.617 63.7456 17.2404 63.5858 18.5672L61.3178 34.9045C61.166 36.2393 61.5573 36.8627 62.883 36.8627Z" fill="#F93549"/>
<path d="M91.3059 42.7294C92.8712 31.3157 100.442 21.9402 112.158 21.9402C116.606 21.9402 119.968 23.7386 122.308 26.552C122.62 26.9437 123.171 26.7838 123.243 26.3202L123.322 25.457C123.714 22.9553 125.511 22.3318 127.93 22.8753C130.51 23.4988 141.515 27.4073 140.972 31.1559C140.892 32.091 140.269 33.1061 138.784 34.7526C137.458 36.1594 136.907 37.1745 136.444 40.9231L134.878 51.7853C134.096 57.5721 137.769 53.8954 139.566 55.0703C140.812 55.8536 140.109 58.3554 138.241 60.6173C136.132 63.199 132.85 64.6057 128.793 64.6057C124.265 64.6057 121.685 62.8873 120.439 60.1537C120.128 59.3704 119.194 59.2186 118.563 59.7621C115.28 62.8873 111.064 64.7656 105.992 64.7656C93.566 64.7656 89.8205 53.2799 91.3059 42.7294ZM113.172 55.1502C117.86 55.1502 119.808 49.6832 120.431 46.0864L120.663 44.6797C121.206 39.5243 120.04 31.5475 114.498 31.5475C109.81 31.5475 107.781 37.1745 107.158 41.1629C106.528 45.8546 106.919 55.1502 113.172 55.1502Z" fill="#F93549"/>
<path d="M146.586 45.0714L148.223 32.9543C148.383 31.6275 147.832 31.076 146.506 31.076H144.941C143.376 31.076 142.05 29.8291 142.361 27.5592V27.0956C142.984 22.7155 145.564 23.0352 149.701 20.2218C155.946 16.1614 156.257 6.23438 163.676 6.23438C166.256 6.23438 167.031 7.40932 166.719 9.35956L165.154 20.2218C164.994 21.5486 165.545 22.172 166.871 22.172H172.182C173.196 21.7004 174.29 21.1569 175.536 20.2218C181.701 16.1614 182.021 6.23438 189.512 6.23438C192.091 6.23438 192.866 7.40932 192.554 9.35956L190.989 20.2218C190.829 21.5486 191.38 22.172 192.706 22.172H200.828C205.356 22.172 205.356 23.267 204.965 25.6089C204.574 28.3424 203.328 31.076 196.843 31.076H191.452C190.127 31.076 189.424 31.6195 189.264 32.9543L187.779 43.5847C186.605 51.7933 188.793 54.6068 192.155 54.6068C193.952 54.6068 195.437 53.9034 197.306 52.0251C199.023 50.3866 200.197 49.8351 201.211 50.0749C202.617 50.3866 203.008 51.7134 202.146 54.2151C200.117 59.6103 194.647 64.1422 186.062 64.1422C179.657 64.1422 175.6 62.5036 173.571 58.747C170.68 61.9521 166.232 64.1422 160.218 64.1422C148.615 64.1422 144.637 58.5952 146.586 45.0714ZM166.344 54.6068C168.141 54.6068 169.626 53.9034 171.495 52.0251C171.655 51.9452 171.806 51.7933 171.886 51.7134C171.886 49.7631 171.966 47.5731 172.437 45.0714L174.074 32.9543C174.234 31.6275 173.683 31.076 172.357 31.076H165.641C164.315 31.076 163.613 31.6195 163.453 32.9543L161.967 43.5847C160.801 51.7933 162.982 54.6068 166.344 54.6068Z" fill="#F93549"/>
<path d="M204.446 42.7294C206.011 31.3157 213.582 21.9402 225.298 21.9402C229.746 21.9402 233.108 23.7386 235.448 26.552C235.759 26.9437 236.31 26.7838 236.382 26.3202L236.462 25.457C236.853 22.9553 238.65 22.3318 241.07 22.8753C243.65 23.4988 254.655 27.4073 254.112 31.1559C254.032 32.091 253.409 33.1061 251.923 34.7526C250.598 36.1594 250.047 37.1745 249.583 40.9231L248.018 51.7853C247.235 57.5721 250.909 53.8954 252.706 55.0703C253.952 55.8536 253.249 58.3554 251.38 60.6173C249.272 63.199 245.99 64.6057 241.933 64.6057C237.405 64.6057 234.825 62.8873 233.579 60.1537C233.268 59.3704 232.333 59.2186 231.702 59.7621C228.42 62.8873 224.203 64.7656 219.132 64.7656C206.714 64.7656 202.96 53.2799 204.446 42.7294ZM226.312 55.1502C231 55.1502 232.948 49.6832 233.571 46.0864L233.803 44.6797C234.346 39.5243 233.18 31.5475 227.637 31.5475C222.95 31.5475 220.921 37.1745 220.298 41.1629C219.675 45.8546 220.067 55.1502 226.312 55.1502Z" fill="#F93549"/>
<path d="M254.655 56.0934C253.481 48.2765 256.452 46.6379 258.328 46.6379C259.343 46.6379 259.965 47.1095 261.682 49.0598C264.334 52.0331 270.427 54.7666 274.101 54.7666C276.05 54.7666 277.615 53.9833 277.775 52.6565C278.006 51.4816 277.072 51.018 270.978 48.9079C264.342 46.566 256.3 42.7375 257.857 33.9054C259.031 27.3433 264.805 21.6365 274.564 21.6365C278.23 21.6365 280.809 22.4198 282.606 22.4198C284.323 22.4198 286.352 21.6365 288.228 21.6365C290.648 21.6365 292.134 22.8833 293.228 26.4002C294.402 29.7572 294.474 33.2021 294.01 34.7606C293.779 35.8557 292.996 36.559 291.902 36.7109C290.656 36.8707 289.562 36.3192 287.765 35.2242C284.331 33.0342 280.578 31.2358 277.224 31.2358C275.195 31.2358 274.021 31.8593 273.789 32.9543C273.71 34.1292 274.724 34.8326 281.68 37.3343C288.396 39.6762 295.735 42.5696 294.17 51.2418C292.765 59.2106 285.505 64.294 274.652 64.294C270.435 64.294 267.936 63.5107 266.219 63.5107C264.422 63.5107 262.313 64.294 260.596 64.294C256.292 64.302 255.357 59.4504 254.655 56.0934Z" fill="#F93549"/>
</svg>
