<svg width="430" height="333" viewBox="0 0 430 333" fill="none" xmlns="http://www.w3.org/2000/svg">
<g clip-path="url(#clip0_117_33)">
<path d="M316.759 310V301.273H318.574V304.554H318.629C318.709 304.378 318.824 304.199 318.974 304.017C319.128 303.832 319.327 303.679 319.571 303.557C319.818 303.432 320.125 303.369 320.491 303.369C320.969 303.369 321.409 303.494 321.812 303.744C322.216 303.991 322.538 304.365 322.78 304.865C323.021 305.362 323.142 305.986 323.142 306.736C323.142 307.466 323.024 308.082 322.788 308.585C322.555 309.085 322.237 309.464 321.834 309.723C321.433 309.979 320.984 310.107 320.487 310.107C320.135 310.107 319.835 310.048 319.588 309.932C319.344 309.815 319.143 309.669 318.987 309.493C318.831 309.314 318.712 309.134 318.629 308.952H318.548V310H316.759ZM318.536 306.727C318.536 307.116 318.589 307.456 318.697 307.746C318.805 308.036 318.962 308.261 319.166 308.423C319.371 308.582 319.619 308.662 319.912 308.662C320.207 308.662 320.457 308.581 320.662 308.419C320.866 308.254 321.021 308.027 321.126 307.737C321.234 307.445 321.288 307.108 321.288 306.727C321.288 306.349 321.236 306.017 321.131 305.73C321.026 305.443 320.871 305.219 320.666 305.057C320.462 304.895 320.21 304.814 319.912 304.814C319.616 304.814 319.366 304.892 319.162 305.048C318.96 305.205 318.805 305.426 318.697 305.713C318.589 306 318.536 306.338 318.536 306.727ZM325.263 312.455C325.033 312.455 324.817 312.436 324.615 312.399C324.417 312.365 324.252 312.321 324.121 312.267L324.53 310.912C324.743 310.977 324.935 311.013 325.105 311.018C325.279 311.024 325.428 310.984 325.553 310.899C325.681 310.814 325.784 310.669 325.864 310.464L325.971 310.188L323.623 303.455H325.532L326.887 308.261H326.955L328.323 303.455H330.245L327.701 310.707C327.578 311.06 327.412 311.366 327.202 311.628C326.995 311.892 326.732 312.095 326.414 312.237C326.096 312.382 325.712 312.455 325.263 312.455ZM333.985 301.273H336.261L338.664 307.136H338.766L341.17 301.273H343.445V310H341.656V304.32H341.583L339.325 309.957H338.106L335.847 304.298H335.775V310H333.985V301.273ZM344.931 310V303.455H346.747V310H344.931ZM345.843 302.611C345.574 302.611 345.342 302.521 345.149 302.342C344.958 302.161 344.863 301.943 344.863 301.69C344.863 301.44 344.958 301.226 345.149 301.047C345.342 300.865 345.574 300.774 345.843 300.774C346.113 300.774 346.343 300.865 346.534 301.047C346.727 301.226 346.824 301.44 346.824 301.69C346.824 301.943 346.727 302.161 346.534 302.342C346.343 302.521 346.113 302.611 345.843 302.611ZM349.846 308.116L349.85 305.939H350.114L352.211 303.455H354.295L351.478 306.744H351.048L349.846 308.116ZM348.201 310V301.273H350.016V310H348.201ZM352.292 310L350.366 307.149L351.576 305.866L354.418 310H352.292ZM357.899 310.128C357.225 310.128 356.646 309.991 356.16 309.719C355.677 309.443 355.305 309.054 355.044 308.551C354.782 308.045 354.652 307.447 354.652 306.757C354.652 306.084 354.782 305.493 355.044 304.984C355.305 304.476 355.673 304.08 356.147 303.795C356.625 303.511 357.184 303.369 357.826 303.369C358.258 303.369 358.66 303.439 359.032 303.578C359.407 303.714 359.734 303.92 360.012 304.196C360.294 304.472 360.512 304.818 360.669 305.236C360.825 305.651 360.903 306.136 360.903 306.693V307.192H355.376V306.067H359.194C359.194 305.805 359.137 305.574 359.024 305.372C358.91 305.17 358.752 305.013 358.551 304.899C358.352 304.783 358.12 304.724 357.856 304.724C357.581 304.724 357.336 304.788 357.123 304.916C356.913 305.041 356.748 305.21 356.629 305.423C356.51 305.634 356.449 305.868 356.446 306.126V307.196C356.446 307.52 356.505 307.8 356.625 308.036C356.747 308.271 356.919 308.453 357.14 308.581C357.362 308.709 357.625 308.773 357.929 308.773C358.13 308.773 358.315 308.744 358.483 308.688C358.65 308.631 358.794 308.545 358.913 308.432C359.032 308.318 359.123 308.179 359.186 308.014L360.865 308.125C360.779 308.528 360.605 308.881 360.341 309.182C360.079 309.48 359.741 309.713 359.326 309.881C358.914 310.045 358.439 310.128 357.899 310.128ZM363.903 301.273V310H362.088V301.273H363.903ZM368.075 310V308.905L372.43 302.794H368.066V301.273H374.748V302.368L370.389 308.479H374.757V310H368.075ZM378.005 310.124C377.587 310.124 377.215 310.051 376.888 309.906C376.562 309.759 376.303 309.541 376.113 309.254C375.925 308.964 375.832 308.604 375.832 308.172C375.832 307.808 375.898 307.503 376.032 307.256C376.165 307.009 376.347 306.81 376.577 306.659C376.808 306.509 377.069 306.395 377.362 306.318C377.657 306.241 377.967 306.188 378.29 306.156C378.671 306.116 378.978 306.08 379.211 306.045C379.444 306.009 379.613 305.955 379.718 305.884C379.823 305.812 379.876 305.707 379.876 305.568V305.543C379.876 305.273 379.79 305.064 379.62 304.916C379.452 304.768 379.214 304.695 378.904 304.695C378.577 304.695 378.317 304.767 378.124 304.912C377.931 305.054 377.803 305.233 377.741 305.449L376.062 305.312C376.147 304.915 376.315 304.571 376.565 304.281C376.815 303.989 377.137 303.764 377.532 303.608C377.93 303.449 378.39 303.369 378.913 303.369C379.276 303.369 379.624 303.412 379.957 303.497C380.292 303.582 380.589 303.714 380.847 303.893C381.109 304.072 381.315 304.303 381.465 304.584C381.616 304.862 381.691 305.196 381.691 305.585V310H379.969V309.092H379.918C379.813 309.297 379.673 309.477 379.496 309.634C379.32 309.787 379.109 309.908 378.862 309.996C378.614 310.081 378.329 310.124 378.005 310.124ZM378.525 308.871C378.792 308.871 379.028 308.818 379.232 308.713C379.437 308.605 379.597 308.46 379.714 308.278C379.83 308.097 379.888 307.891 379.888 307.661V306.966C379.832 307.003 379.754 307.037 379.654 307.068C379.558 307.097 379.448 307.124 379.326 307.149C379.204 307.172 379.082 307.193 378.96 307.213C378.837 307.23 378.727 307.246 378.627 307.26C378.414 307.291 378.228 307.341 378.069 307.409C377.91 307.477 377.786 307.57 377.698 307.686C377.61 307.8 377.566 307.942 377.566 308.112C377.566 308.359 377.656 308.548 377.835 308.679C378.016 308.807 378.246 308.871 378.525 308.871ZM383.134 310V301.273H384.949V304.554H385.004C385.084 304.378 385.199 304.199 385.349 304.017C385.503 303.832 385.702 303.679 385.946 303.557C386.193 303.432 386.5 303.369 386.866 303.369C387.344 303.369 387.784 303.494 388.188 303.744C388.591 303.991 388.913 304.365 389.155 304.865C389.396 305.362 389.517 305.986 389.517 306.736C389.517 307.466 389.399 308.082 389.163 308.585C388.93 309.085 388.612 309.464 388.209 309.723C387.808 309.979 387.359 310.107 386.862 310.107C386.51 310.107 386.21 310.048 385.963 309.932C385.719 309.815 385.518 309.669 385.362 309.493C385.206 309.314 385.087 309.134 385.004 308.952H384.923V310H383.134ZM384.911 306.727C384.911 307.116 384.964 307.456 385.072 307.746C385.18 308.036 385.337 308.261 385.541 308.423C385.746 308.582 385.994 308.662 386.287 308.662C386.582 308.662 386.832 308.581 387.037 308.419C387.241 308.254 387.396 308.027 387.501 307.737C387.609 307.445 387.663 307.108 387.663 306.727C387.663 306.349 387.611 306.017 387.506 305.73C387.401 305.443 387.246 305.219 387.041 305.057C386.837 304.895 386.585 304.814 386.287 304.814C385.991 304.814 385.741 304.892 385.537 305.048C385.335 305.205 385.18 305.426 385.072 305.713C384.964 306 384.911 306.338 384.911 306.727ZM392.595 310.124C392.177 310.124 391.805 310.051 391.478 309.906C391.152 309.759 390.893 309.541 390.703 309.254C390.515 308.964 390.422 308.604 390.422 308.172C390.422 307.808 390.488 307.503 390.622 307.256C390.755 307.009 390.937 306.81 391.167 306.659C391.397 306.509 391.659 306.395 391.951 306.318C392.247 306.241 392.556 306.188 392.88 306.156C393.261 306.116 393.568 306.08 393.801 306.045C394.034 306.009 394.203 305.955 394.308 305.884C394.413 305.812 394.466 305.707 394.466 305.568V305.543C394.466 305.273 394.38 305.064 394.21 304.916C394.042 304.768 393.804 304.695 393.494 304.695C393.167 304.695 392.907 304.767 392.714 304.912C392.521 305.054 392.393 305.233 392.331 305.449L390.652 305.312C390.737 304.915 390.904 304.571 391.154 304.281C391.404 303.989 391.727 303.764 392.122 303.608C392.52 303.449 392.98 303.369 393.502 303.369C393.866 303.369 394.214 303.412 394.547 303.497C394.882 303.582 395.179 303.714 395.437 303.893C395.699 304.072 395.904 304.303 396.055 304.584C396.206 304.862 396.281 305.196 396.281 305.585V310H394.559V309.092H394.508C394.403 309.297 394.262 309.477 394.086 309.634C393.91 309.787 393.699 309.908 393.451 309.996C393.204 310.081 392.919 310.124 392.595 310.124ZM393.115 308.871C393.382 308.871 393.618 308.818 393.822 308.713C394.027 308.605 394.187 308.46 394.304 308.278C394.42 308.097 394.478 307.891 394.478 307.661V306.966C394.422 307.003 394.343 307.037 394.244 307.068C394.147 307.097 394.038 307.124 393.916 307.149C393.794 307.172 393.672 307.193 393.549 307.213C393.427 307.23 393.316 307.246 393.217 307.26C393.004 307.291 392.818 307.341 392.659 307.409C392.5 307.477 392.376 307.57 392.288 307.686C392.2 307.8 392.156 307.942 392.156 308.112C392.156 308.359 392.245 308.548 392.424 308.679C392.606 308.807 392.836 308.871 393.115 308.871ZM399.505 301.273V310H397.689V301.273H399.505ZM403.942 310.128C403.268 310.128 402.689 309.991 402.203 309.719C401.72 309.443 401.348 309.054 401.087 308.551C400.825 308.045 400.695 307.447 400.695 306.757C400.695 306.084 400.825 305.493 401.087 304.984C401.348 304.476 401.716 304.08 402.19 303.795C402.668 303.511 403.227 303.369 403.869 303.369C404.301 303.369 404.703 303.439 405.075 303.578C405.45 303.714 405.777 303.92 406.055 304.196C406.337 304.472 406.555 304.818 406.712 305.236C406.868 305.651 406.946 306.136 406.946 306.693V307.192H401.419V306.067H405.237C405.237 305.805 405.18 305.574 405.067 305.372C404.953 305.17 404.795 305.013 404.594 304.899C404.395 304.783 404.163 304.724 403.899 304.724C403.624 304.724 403.379 304.788 403.166 304.916C402.956 305.041 402.791 305.21 402.672 305.423C402.553 305.634 402.491 305.868 402.489 306.126V307.196C402.489 307.52 402.548 307.8 402.668 308.036C402.79 308.271 402.962 308.453 403.183 308.581C403.405 308.709 403.668 308.773 403.972 308.773C404.173 308.773 404.358 308.744 404.526 308.688C404.693 308.631 404.837 308.545 404.956 308.432C405.075 308.318 405.166 308.179 405.229 308.014L406.908 308.125C406.822 308.528 406.648 308.881 406.384 309.182C406.122 309.48 405.784 309.713 405.369 309.881C404.957 310.045 404.482 310.128 403.942 310.128ZM411.612 303.455V304.818H407.67V303.455H411.612ZM408.565 301.886H410.381V307.989C410.381 308.156 410.406 308.287 410.457 308.381C410.509 308.472 410.58 308.536 410.67 308.572C410.764 308.609 410.872 308.628 410.994 308.628C411.08 308.628 411.165 308.621 411.25 308.607C411.335 308.589 411.401 308.577 411.446 308.568L411.732 309.919C411.641 309.947 411.513 309.98 411.348 310.017C411.183 310.057 410.983 310.081 410.747 310.089C410.31 310.107 409.926 310.048 409.597 309.915C409.27 309.781 409.016 309.574 408.834 309.293C408.652 309.011 408.563 308.656 408.565 308.227V301.886ZM414.661 310.124C414.244 310.124 413.871 310.051 413.545 309.906C413.218 309.759 412.96 309.541 412.769 309.254C412.582 308.964 412.488 308.604 412.488 308.172C412.488 307.808 412.555 307.503 412.688 307.256C412.822 307.009 413.004 306.81 413.234 306.659C413.464 306.509 413.725 306.395 414.018 306.318C414.313 306.241 414.623 306.188 414.947 306.156C415.327 306.116 415.634 306.08 415.867 306.045C416.1 306.009 416.269 305.955 416.374 305.884C416.479 305.812 416.532 305.707 416.532 305.568V305.543C416.532 305.273 416.447 305.064 416.276 304.916C416.109 304.768 415.87 304.695 415.56 304.695C415.234 304.695 414.974 304.767 414.781 304.912C414.587 305.054 414.46 305.233 414.397 305.449L412.718 305.312C412.803 304.915 412.971 304.571 413.221 304.281C413.471 303.989 413.793 303.764 414.188 303.608C414.586 303.449 415.046 303.369 415.569 303.369C415.933 303.369 416.281 303.412 416.613 303.497C416.948 303.582 417.245 303.714 417.504 303.893C417.765 304.072 417.971 304.303 418.121 304.584C418.272 304.862 418.347 305.196 418.347 305.585V310H416.626V309.092H416.575C416.469 309.297 416.329 309.477 416.153 309.634C415.977 309.787 415.765 309.908 415.518 309.996C415.271 310.081 414.985 310.124 414.661 310.124ZM415.181 308.871C415.448 308.871 415.684 308.818 415.888 308.713C416.093 308.605 416.254 308.46 416.37 308.278C416.487 308.097 416.545 307.891 416.545 307.661V306.966C416.488 307.003 416.41 307.037 416.31 307.068C416.214 307.097 416.104 307.124 415.982 307.149C415.86 307.172 415.738 307.193 415.616 307.213C415.494 307.23 415.383 307.246 415.283 307.26C415.07 307.291 414.884 307.341 414.725 307.409C414.566 307.477 414.442 307.57 414.354 307.686C414.266 307.8 414.222 307.942 414.222 308.112C414.222 308.359 414.312 308.548 414.491 308.679C414.673 308.807 414.903 308.871 415.181 308.871Z" fill="black"/>
<path d="M71.4769 180.08C71.5769 178.81 72.6469 177.83 74.3169 176.27C77.5469 173.24 78.4269 172.26 79.0069 168.25L82.7269 142.24C84.3869 130.41 79.4969 126.01 67.9569 126.01C57.6869 126.01 50.1569 131.09 48.3069 140.38C47.2269 145.76 48.3069 151.23 52.1169 151.23C58.9569 151.23 53.3869 133.92 66.9769 133.92C72.0569 133.92 75.2869 138.81 74.0169 145.85C72.0569 156.31 61.8969 162.57 52.0169 162.57C39.5969 162.57 31.8769 152.5 34.5169 139.2C37.6469 124.04 52.3169 113.97 71.1869 113.97H121.347C136.987 113.97 146.667 122.97 144.817 136.65C143.647 144.57 138.947 152.78 131.127 157.77C125.257 161.58 119.197 163.34 104.047 163.34C102.387 163.34 101.607 164.12 101.307 165.78L100.917 168.22C100.327 172.23 101.017 173.21 103.457 176.24C104.727 177.8 105.417 178.78 105.317 180.05C104.927 183.18 99.5469 184.35 87.7169 184.35C75.8869 184.35 71.0869 183.21 71.4769 180.08ZM105.697 151.33H108.237C114.687 151.33 119.287 146.34 120.457 138.13C121.727 129.13 117.427 126 111.657 126H109.217C107.557 126 106.777 126.78 106.577 128.44L103.737 148.88C103.547 150.55 104.037 151.33 105.697 151.33Z" fill="#F93549"/>
<path d="M141.287 158.67C143.247 144.39 152.727 132.66 167.397 132.66C172.967 132.66 177.177 134.91 180.107 138.43C180.497 138.92 181.187 138.72 181.277 138.14L181.377 137.06C181.867 133.93 184.117 133.15 187.147 133.83C190.377 134.61 204.157 139.5 203.477 144.19C203.377 145.36 202.597 146.63 200.737 148.69C199.077 150.45 198.387 151.72 197.807 156.41L195.847 170C194.867 177.24 199.467 172.64 201.717 174.11C203.277 175.09 202.397 178.22 200.057 181.05C197.417 184.28 193.307 186.04 188.227 186.04C182.557 186.04 179.327 183.89 177.767 180.47C177.377 179.49 176.207 179.3 175.417 179.98C171.307 183.89 166.027 186.24 159.677 186.24C144.117 186.24 139.427 171.87 141.287 158.67ZM168.667 174.22C174.537 174.22 176.977 167.38 177.757 162.88L178.047 161.12C178.727 154.67 177.267 144.69 170.327 144.69C164.457 144.69 161.917 151.73 161.137 156.72C160.347 162.58 160.837 174.22 168.667 174.22Z" fill="#F93549"/>
<path d="M210.507 161.6L212.557 146.44C212.757 144.78 212.067 144.09 210.407 144.09H208.447C206.487 144.09 204.827 142.53 205.217 139.69V139.1C205.997 133.62 209.227 134.02 214.407 130.5C222.227 125.42 222.617 113 231.907 113C235.137 113 236.107 114.47 235.717 116.91L233.757 130.5C233.557 132.16 234.247 132.94 235.907 132.94H242.557C243.827 132.35 245.197 131.67 246.757 130.5C254.477 125.42 254.877 113 264.257 113C267.487 113 268.457 114.47 268.067 116.91L266.107 130.5C265.907 132.16 266.597 132.94 268.257 132.94H278.427C284.097 132.94 284.097 134.31 283.607 137.24C283.117 140.66 281.557 144.08 273.437 144.08H266.687C265.027 144.08 264.147 144.76 263.947 146.43L262.087 159.73C260.617 170 263.357 173.52 267.567 173.52C269.817 173.52 271.677 172.64 274.017 170.29C276.167 168.24 277.637 167.55 278.907 167.85C280.667 168.24 281.157 169.9 280.077 173.03C277.537 179.78 270.687 185.45 259.937 185.45C251.917 185.45 246.837 183.4 244.297 178.7C240.677 182.71 235.107 185.45 227.577 185.45C213.047 185.46 208.067 178.52 210.507 161.6ZM235.247 173.53C237.497 173.53 239.357 172.65 241.697 170.3C241.897 170.2 242.087 170.01 242.187 169.91C242.187 167.47 242.287 164.73 242.877 161.6L244.927 146.44C245.127 144.78 244.437 144.09 242.777 144.09H234.367C232.707 144.09 231.827 144.77 231.627 146.44L229.767 159.74C228.307 170.01 231.037 173.53 235.247 173.53Z" fill="#F93549"/>
<path d="M282.957 158.67C284.917 144.39 294.397 132.66 309.067 132.66C314.637 132.66 318.847 134.91 321.777 138.43C322.167 138.92 322.857 138.72 322.947 138.14L323.047 137.06C323.537 133.93 325.787 133.15 328.817 133.83C332.047 134.61 345.827 139.5 345.147 144.19C345.047 145.36 344.267 146.63 342.407 148.69C340.747 150.45 340.057 151.72 339.477 156.41L337.517 170C336.537 177.24 341.137 172.64 343.387 174.11C344.947 175.09 344.067 178.22 341.727 181.05C339.087 184.28 334.977 186.04 329.897 186.04C324.227 186.04 320.997 183.89 319.437 180.47C319.047 179.49 317.877 179.3 317.087 179.98C312.977 183.89 307.697 186.24 301.347 186.24C285.797 186.24 281.097 171.87 282.957 158.67ZM310.337 174.22C316.207 174.22 318.647 167.38 319.427 162.88L319.717 161.12C320.397 154.67 318.937 144.69 311.997 144.69C306.127 144.69 303.587 151.73 302.807 156.72C302.027 162.58 302.517 174.22 310.337 174.22Z" fill="#F93549"/>
<path d="M345.827 175.39C344.357 165.61 348.077 163.56 350.427 163.56C351.697 163.56 352.477 164.15 354.627 166.59C357.947 170.31 365.577 173.73 370.177 173.73C372.617 173.73 374.577 172.75 374.777 171.09C375.067 169.62 373.897 169.04 366.267 166.4C357.957 163.47 347.887 158.68 349.837 147.63C351.307 139.42 358.537 132.28 370.757 132.28C375.347 132.28 378.577 133.26 380.827 133.26C382.977 133.26 385.517 132.28 387.867 132.28C390.897 132.28 392.757 133.84 394.127 138.24C395.597 142.44 395.687 146.75 395.107 148.7C394.817 150.07 393.837 150.95 392.467 151.14C390.907 151.34 389.537 150.65 387.287 149.28C382.987 146.54 378.287 144.29 374.087 144.29C371.547 144.29 370.077 145.07 369.787 146.44C369.687 147.91 370.957 148.79 379.667 151.92C388.077 154.85 397.267 158.47 395.307 169.32C393.547 179.29 384.457 185.65 370.867 185.65C365.587 185.65 362.457 184.67 360.307 184.67C358.057 184.67 355.417 185.65 353.267 185.65C347.877 185.66 346.707 179.59 345.827 175.39Z" fill="#F93549"/>
<path d="M127.027 206.47H128.507V217.8H126.787L121.027 208.65H120.997V217.8H119.517V206.47H121.327L126.987 215.62H127.017V206.47H127.027Z" fill="black"/>
<path d="M132.687 214.5L131.507 217.8H129.927L134.187 206.47H135.927L140.027 217.8H138.357L137.237 214.5H132.687ZM136.687 213.14L135.017 208.15H134.987L133.177 213.14H136.687Z" fill="black"/>
<path d="M140.457 206.47H149.657V207.83H145.827V217.8H144.297V207.83H140.467V206.47H140.457Z" fill="black"/>
<path d="M160.037 206.47V213.82C160.037 216.14 158.587 218.1 155.477 218.1C152.437 218.1 151.127 216.14 151.127 214.03V206.47H152.657V213.6C152.657 216.06 154.157 216.74 155.527 216.74C156.927 216.74 158.507 216.09 158.507 213.63V206.47H160.037Z" fill="black"/>
<path d="M164.197 217.8H162.667V206.47H167.907C169.767 206.47 171.627 207.12 171.627 209.51C171.627 211.18 170.777 211.8 170.047 212.22C170.697 212.49 171.337 212.77 171.407 214.35L171.497 216.4C171.517 217.03 171.587 217.27 172.067 217.54V217.79H170.187C169.967 217.1 169.917 215.38 169.917 214.95C169.917 214.02 169.727 212.93 167.897 212.93H164.187V217.8H164.197ZM164.197 211.63H167.747C168.867 211.63 170.047 211.35 170.047 209.67C170.047 207.92 168.767 207.78 168.007 207.78H164.187V211.63H164.197Z" fill="black"/>
<path d="M175.647 214.5L174.467 217.8H172.887L177.147 206.47H178.887L182.987 217.8H181.317L180.197 214.5H175.647ZM179.647 213.14L177.977 208.15H177.947L176.137 213.14H179.647Z" fill="black"/>
<path d="M185.927 216.44H191.667V217.8H184.397V206.47H185.927V216.44Z" fill="black"/>
<path d="M202.497 217.8V211.11C202.497 210.78 202.527 209.34 202.527 208.29H202.497L199.307 217.8H197.797L194.607 208.3H194.577C194.577 209.34 194.607 210.78 194.607 211.11V217.8H193.127V206.47H195.317L198.547 216.05H198.577L201.797 206.47H203.977V217.8H202.497Z" fill="black"/>
<path d="M214.837 217.8H206.477V206.47H214.727V207.83H208.007V211.3H214.207V212.66H208.007V216.45H214.837V217.8Z" fill="black"/>
<path d="M224.357 206.47H225.837V217.8H224.117L218.357 208.65H218.327V217.8H216.847V206.47H218.657L224.317 215.62H224.347V206.47H224.357Z" fill="black"/>
<path d="M227.257 206.47H236.457V207.83H232.627V217.8H231.097V207.83H227.267V206.47H227.257Z" fill="black"/>
<path d="M246.397 217.8H238.037V206.47H246.287V207.83H239.567V211.3H245.767V212.66H239.567V216.45H246.397V217.8Z" fill="black"/>
<path d="M254.577 214.5L253.397 217.8H251.817L256.077 206.47H257.817L261.917 217.8H260.247L259.127 214.5H254.577ZM258.567 213.14L256.897 208.15H256.867L255.057 213.14H258.567Z" fill="black"/>
<path d="M270.837 206.47H272.317V217.8H270.597L264.837 208.65H264.807V217.8H263.327V206.47H265.137L270.797 215.62H270.827V206.47H270.837Z" fill="black"/>
<path d="M276.487 217.8H274.957V206.47H276.487V217.8Z" fill="black"/>
<path d="M288.427 217.8V211.11C288.427 210.78 288.457 209.34 288.457 208.29H288.427L285.237 217.8H283.727L280.537 208.3H280.507C280.507 209.34 280.537 210.78 280.537 211.11V217.8H279.057V206.47H281.247L284.477 216.05H284.507L287.727 206.47H289.907V217.8H288.427Z" fill="black"/>
<path d="M294.037 214.5L292.857 217.8H291.277L295.537 206.47H297.277L301.377 217.8H299.707L298.587 214.5H294.037ZM298.027 213.14L296.357 208.16H296.327L294.517 213.15H298.027V213.14Z" fill="black"/>
<path d="M304.307 216.44H310.047V217.8H302.777V206.47H304.307V216.44Z" fill="black"/>
</g>
<defs>
<clipPath id="clip0_117_33">
<rect width="430" height="333" fill="white"/>
</clipPath>
</defs>
</svg>
