<svg width="300" height="110" viewBox="0 0 300 110" fill="none" xmlns="http://www.w3.org/2000/svg">
<g clip-path="url(#clip0_80_28)">
<path d="M116.759 87V78.2727H118.574V81.554H118.629C118.709 81.3778 118.824 81.1989 118.974 81.017C119.128 80.8324 119.327 80.679 119.571 80.5568C119.818 80.4318 120.125 80.3693 120.491 80.3693C120.969 80.3693 121.409 80.4943 121.812 80.7443C122.216 80.9915 122.538 81.3651 122.78 81.8651C123.021 82.3622 123.142 82.9858 123.142 83.7358C123.142 84.4659 123.024 85.0824 122.788 85.5852C122.555 86.0852 122.237 86.4645 121.834 86.723C121.433 86.9787 120.984 87.1065 120.487 87.1065C120.135 87.1065 119.835 87.0483 119.588 86.9318C119.344 86.8153 119.143 86.669 118.987 86.4929C118.831 86.3139 118.712 86.1335 118.629 85.9517H118.548V87H116.759ZM118.536 83.7273C118.536 84.1165 118.589 84.456 118.697 84.7457C118.805 85.0355 118.962 85.2614 119.166 85.4233C119.371 85.5824 119.619 85.6619 119.912 85.6619C120.207 85.6619 120.457 85.581 120.662 85.419C120.866 85.2543 121.021 85.027 121.126 84.7372C121.234 84.4446 121.288 84.108 121.288 83.7273C121.288 83.3494 121.236 83.017 121.131 82.7301C121.026 82.4432 120.871 82.2187 120.666 82.0568C120.462 81.8949 120.21 81.8139 119.912 81.8139C119.616 81.8139 119.366 81.892 119.162 82.0483C118.96 82.2045 118.805 82.4261 118.697 82.7131C118.589 83 118.536 83.3381 118.536 83.7273ZM125.263 89.4545C125.033 89.4545 124.817 89.4361 124.615 89.3991C124.417 89.3651 124.252 89.321 124.121 89.267L124.53 87.9119C124.743 87.9773 124.935 88.0128 125.105 88.0185C125.279 88.0241 125.428 87.9844 125.553 87.8991C125.681 87.8139 125.784 87.669 125.864 87.4645L125.971 87.1875L123.623 80.4545H125.532L126.887 85.2614H126.955L128.323 80.4545H130.245L127.701 87.7074C127.578 88.0597 127.412 88.3665 127.202 88.6278C126.995 88.892 126.732 89.0952 126.414 89.2372C126.096 89.3821 125.712 89.4545 125.263 89.4545ZM133.985 78.2727H136.261L138.664 84.1364H138.766L141.17 78.2727H143.445V87H141.656V81.3196H141.583L139.325 86.9574H138.106L135.847 81.2983H135.775V87H133.985V78.2727ZM144.931 87V80.4545H146.747V87H144.931ZM145.843 79.6108C145.574 79.6108 145.342 79.5213 145.149 79.3423C144.958 79.1605 144.863 78.9432 144.863 78.6903C144.863 78.4403 144.958 78.2259 145.149 78.0469C145.342 77.8651 145.574 77.7741 145.843 77.7741C146.113 77.7741 146.343 77.8651 146.534 78.0469C146.727 78.2259 146.824 78.4403 146.824 78.6903C146.824 78.9432 146.727 79.1605 146.534 79.3423C146.343 79.5213 146.113 79.6108 145.843 79.6108ZM149.846 85.1165L149.85 82.9389H150.114L152.211 80.4545H154.295L151.478 83.7443H151.048L149.846 85.1165ZM148.201 87V78.2727H150.016V87H148.201ZM152.292 87L150.366 84.1491L151.576 82.8665L154.418 87H152.292ZM157.899 87.1278C157.225 87.1278 156.646 86.9915 156.16 86.7188C155.677 86.4432 155.305 86.054 155.044 85.5511C154.782 85.0455 154.652 84.4474 154.652 83.7571C154.652 83.0838 154.782 82.4929 155.044 81.9844C155.305 81.4759 155.673 81.0795 156.147 80.7955C156.625 80.5114 157.184 80.3693 157.826 80.3693C158.258 80.3693 158.66 80.4389 159.032 80.5781C159.407 80.7145 159.734 80.9205 160.012 81.196C160.294 81.4716 160.512 81.8182 160.669 82.2358C160.825 82.6506 160.903 83.1364 160.903 83.6932V84.1918H155.376V83.0668H159.194C159.194 82.8054 159.137 82.5739 159.024 82.3722C158.91 82.1705 158.752 82.0128 158.551 81.8991C158.352 81.7827 158.12 81.7244 157.856 81.7244C157.581 81.7244 157.336 81.7884 157.123 81.9162C156.913 82.0412 156.748 82.2102 156.629 82.4233C156.51 82.6335 156.449 82.8679 156.446 83.1264V84.196C156.446 84.5199 156.505 84.7997 156.625 85.0355C156.747 85.2713 156.919 85.4531 157.14 85.581C157.362 85.7088 157.625 85.7727 157.929 85.7727C158.13 85.7727 158.315 85.7443 158.483 85.6875C158.65 85.6307 158.794 85.5455 158.913 85.4318C159.032 85.3182 159.123 85.179 159.186 85.0142L160.865 85.125C160.779 85.5284 160.605 85.8807 160.341 86.1818C160.079 86.4801 159.741 86.7131 159.326 86.8807C158.914 87.0455 158.439 87.1278 157.899 87.1278ZM163.903 78.2727V87H162.088V78.2727H163.903ZM168.075 87V85.9048L172.43 79.794H168.066V78.2727H174.748V79.3679L170.389 85.4787H174.757V87H168.075ZM178.005 87.1236C177.587 87.1236 177.215 87.0511 176.888 86.9062C176.562 86.7585 176.303 86.5412 176.113 86.2543C175.925 85.9645 175.832 85.6037 175.832 85.1719C175.832 84.8082 175.898 84.5028 176.032 84.2557C176.165 84.0085 176.347 83.8097 176.577 83.6591C176.808 83.5085 177.069 83.3949 177.362 83.3182C177.657 83.2415 177.967 83.1875 178.29 83.1562C178.671 83.1165 178.978 83.0795 179.211 83.0455C179.444 83.0085 179.613 82.9545 179.718 82.8835C179.823 82.8125 179.876 82.7074 179.876 82.5682V82.5426C179.876 82.2727 179.79 82.0639 179.62 81.9162C179.452 81.7685 179.214 81.6946 178.904 81.6946C178.577 81.6946 178.317 81.767 178.124 81.9119C177.931 82.054 177.803 82.233 177.741 82.4489L176.062 82.3125C176.147 81.9148 176.315 81.571 176.565 81.2812C176.815 80.9886 177.137 80.7642 177.532 80.608C177.93 80.4489 178.39 80.3693 178.913 80.3693C179.276 80.3693 179.624 80.4119 179.957 80.4972C180.292 80.5824 180.589 80.7145 180.847 80.8935C181.109 81.0724 181.315 81.3026 181.465 81.5838C181.616 81.8622 181.691 82.196 181.691 82.5852V87H179.969V86.0923H179.918C179.813 86.2969 179.673 86.4773 179.496 86.6335C179.32 86.7869 179.109 86.9077 178.862 86.9957C178.614 87.081 178.329 87.1236 178.005 87.1236ZM178.525 85.8707C178.792 85.8707 179.028 85.8182 179.232 85.7131C179.437 85.6051 179.597 85.4602 179.714 85.2784C179.83 85.0966 179.888 84.8906 179.888 84.6605V83.9659C179.832 84.0028 179.754 84.0369 179.654 84.0682C179.558 84.0966 179.448 84.1236 179.326 84.1491C179.204 84.1719 179.082 84.1932 178.96 84.2131C178.837 84.2301 178.727 84.2457 178.627 84.2599C178.414 84.2912 178.228 84.3409 178.069 84.4091C177.91 84.4773 177.786 84.5696 177.698 84.6861C177.61 84.7997 177.566 84.9418 177.566 85.1122C177.566 85.3594 177.656 85.5483 177.835 85.679C178.016 85.8068 178.246 85.8707 178.525 85.8707ZM183.134 87V78.2727H184.949V81.554H185.004C185.084 81.3778 185.199 81.1989 185.349 81.017C185.503 80.8324 185.702 80.679 185.946 80.5568C186.193 80.4318 186.5 80.3693 186.866 80.3693C187.344 80.3693 187.784 80.4943 188.188 80.7443C188.591 80.9915 188.913 81.3651 189.155 81.8651C189.396 82.3622 189.517 82.9858 189.517 83.7358C189.517 84.4659 189.399 85.0824 189.163 85.5852C188.93 86.0852 188.612 86.4645 188.209 86.723C187.808 86.9787 187.359 87.1065 186.862 87.1065C186.51 87.1065 186.21 87.0483 185.963 86.9318C185.719 86.8153 185.518 86.669 185.362 86.4929C185.206 86.3139 185.087 86.1335 185.004 85.9517H184.923V87H183.134ZM184.911 83.7273C184.911 84.1165 184.964 84.456 185.072 84.7457C185.18 85.0355 185.337 85.2614 185.541 85.4233C185.746 85.5824 185.994 85.6619 186.287 85.6619C186.582 85.6619 186.832 85.581 187.037 85.419C187.241 85.2543 187.396 85.027 187.501 84.7372C187.609 84.4446 187.663 84.108 187.663 83.7273C187.663 83.3494 187.611 83.017 187.506 82.7301C187.401 82.4432 187.246 82.2187 187.041 82.0568C186.837 81.8949 186.585 81.8139 186.287 81.8139C185.991 81.8139 185.741 81.892 185.537 82.0483C185.335 82.2045 185.18 82.4261 185.072 82.7131C184.964 83 184.911 83.3381 184.911 83.7273ZM192.595 87.1236C192.177 87.1236 191.805 87.0511 191.478 86.9062C191.152 86.7585 190.893 86.5412 190.703 86.2543C190.515 85.9645 190.422 85.6037 190.422 85.1719C190.422 84.8082 190.488 84.5028 190.622 84.2557C190.755 84.0085 190.937 83.8097 191.167 83.6591C191.397 83.5085 191.659 83.3949 191.951 83.3182C192.247 83.2415 192.556 83.1875 192.88 83.1562C193.261 83.1165 193.568 83.0795 193.801 83.0455C194.034 83.0085 194.203 82.9545 194.308 82.8835C194.413 82.8125 194.466 82.7074 194.466 82.5682V82.5426C194.466 82.2727 194.38 82.0639 194.21 81.9162C194.042 81.7685 193.804 81.6946 193.494 81.6946C193.167 81.6946 192.907 81.767 192.714 81.9119C192.521 82.054 192.393 82.233 192.331 82.4489L190.652 82.3125C190.737 81.9148 190.904 81.571 191.154 81.2812C191.404 80.9886 191.727 80.7642 192.122 80.608C192.52 80.4489 192.98 80.3693 193.502 80.3693C193.866 80.3693 194.214 80.4119 194.547 80.4972C194.882 80.5824 195.179 80.7145 195.437 80.8935C195.699 81.0724 195.904 81.3026 196.055 81.5838C196.206 81.8622 196.281 82.196 196.281 82.5852V87H194.559V86.0923H194.508C194.403 86.2969 194.262 86.4773 194.086 86.6335C193.91 86.7869 193.699 86.9077 193.451 86.9957C193.204 87.081 192.919 87.1236 192.595 87.1236ZM193.115 85.8707C193.382 85.8707 193.618 85.8182 193.822 85.7131C194.027 85.6051 194.187 85.4602 194.304 85.2784C194.42 85.0966 194.478 84.8906 194.478 84.6605V83.9659C194.422 84.0028 194.343 84.0369 194.244 84.0682C194.147 84.0966 194.038 84.1236 193.916 84.1491C193.794 84.1719 193.672 84.1932 193.549 84.2131C193.427 84.2301 193.316 84.2457 193.217 84.2599C193.004 84.2912 192.818 84.3409 192.659 84.4091C192.5 84.4773 192.376 84.5696 192.288 84.6861C192.2 84.7997 192.156 84.9418 192.156 85.1122C192.156 85.3594 192.245 85.5483 192.424 85.679C192.606 85.8068 192.836 85.8707 193.115 85.8707ZM199.505 78.2727V87H197.689V78.2727H199.505ZM203.942 87.1278C203.268 87.1278 202.689 86.9915 202.203 86.7188C201.72 86.4432 201.348 86.054 201.087 85.5511C200.825 85.0455 200.695 84.4474 200.695 83.7571C200.695 83.0838 200.825 82.4929 201.087 81.9844C201.348 81.4759 201.716 81.0795 202.19 80.7955C202.668 80.5114 203.227 80.3693 203.869 80.3693C204.301 80.3693 204.703 80.4389 205.075 80.5781C205.45 80.7145 205.777 80.9205 206.055 81.196C206.337 81.4716 206.555 81.8182 206.712 82.2358C206.868 82.6506 206.946 83.1364 206.946 83.6932V84.1918H201.419V83.0668H205.237C205.237 82.8054 205.18 82.5739 205.067 82.3722C204.953 82.1705 204.795 82.0128 204.594 81.8991C204.395 81.7827 204.163 81.7244 203.899 81.7244C203.624 81.7244 203.379 81.7884 203.166 81.9162C202.956 82.0412 202.791 82.2102 202.672 82.4233C202.553 82.6335 202.491 82.8679 202.489 83.1264V84.196C202.489 84.5199 202.548 84.7997 202.668 85.0355C202.79 85.2713 202.962 85.4531 203.183 85.581C203.405 85.7088 203.668 85.7727 203.972 85.7727C204.173 85.7727 204.358 85.7443 204.526 85.6875C204.693 85.6307 204.837 85.5455 204.956 85.4318C205.075 85.3182 205.166 85.179 205.229 85.0142L206.908 85.125C206.822 85.5284 206.648 85.8807 206.384 86.1818C206.122 86.4801 205.784 86.7131 205.369 86.8807C204.957 87.0455 204.482 87.1278 203.942 87.1278ZM211.612 80.4545V81.8182H207.67V80.4545H211.612ZM208.565 78.8864H210.381V84.9886C210.381 85.1562 210.406 85.2869 210.457 85.3807C210.509 85.4716 210.58 85.5355 210.67 85.5724C210.764 85.6094 210.872 85.6278 210.994 85.6278C211.08 85.6278 211.165 85.6207 211.25 85.6065C211.335 85.5895 211.401 85.5767 211.446 85.5682L211.732 86.919C211.641 86.9474 211.513 86.9801 211.348 87.017C211.183 87.0568 210.983 87.081 210.747 87.0895C210.31 87.1065 209.926 87.0483 209.597 86.9148C209.27 86.7812 209.016 86.5739 208.834 86.2926C208.652 86.0114 208.563 85.6562 208.565 85.2273V78.8864ZM214.661 87.1236C214.244 87.1236 213.871 87.0511 213.545 86.9062C213.218 86.7585 212.96 86.5412 212.769 86.2543C212.582 85.9645 212.488 85.6037 212.488 85.1719C212.488 84.8082 212.555 84.5028 212.688 84.2557C212.822 84.0085 213.004 83.8097 213.234 83.6591C213.464 83.5085 213.725 83.3949 214.018 83.3182C214.313 83.2415 214.623 83.1875 214.947 83.1562C215.327 83.1165 215.634 83.0795 215.867 83.0455C216.1 83.0085 216.269 82.9545 216.374 82.8835C216.479 82.8125 216.532 82.7074 216.532 82.5682V82.5426C216.532 82.2727 216.447 82.0639 216.276 81.9162C216.109 81.7685 215.87 81.6946 215.56 81.6946C215.234 81.6946 214.974 81.767 214.781 81.9119C214.587 82.054 214.46 82.233 214.397 82.4489L212.718 82.3125C212.803 81.9148 212.971 81.571 213.221 81.2812C213.471 80.9886 213.793 80.7642 214.188 80.608C214.586 80.4489 215.046 80.3693 215.569 80.3693C215.933 80.3693 216.281 80.4119 216.613 80.4972C216.948 80.5824 217.245 80.7145 217.504 80.8935C217.765 81.0724 217.971 81.3026 218.121 81.5838C218.272 81.8622 218.347 82.196 218.347 82.5852V87H216.626V86.0923H216.575C216.469 86.2969 216.329 86.4773 216.153 86.6335C215.977 86.7869 215.765 86.9077 215.518 86.9957C215.271 87.081 214.985 87.1236 214.661 87.1236ZM215.181 85.8707C215.448 85.8707 215.684 85.8182 215.888 85.7131C216.093 85.6051 216.254 85.4602 216.37 85.2784C216.487 85.0966 216.545 84.8906 216.545 84.6605V83.9659C216.488 84.0028 216.41 84.0369 216.31 84.0682C216.214 84.0966 216.104 84.1236 215.982 84.1491C215.86 84.1719 215.738 84.1932 215.616 84.2131C215.494 84.2301 215.383 84.2457 215.283 84.2599C215.07 84.2912 214.884 84.3409 214.725 84.4091C214.566 84.4773 214.442 84.5696 214.354 84.6861C214.266 84.7997 214.222 84.9418 214.222 85.1122C214.222 85.3594 214.312 85.5483 214.491 85.679C214.673 85.8068 214.903 85.8707 215.181 85.8707Z" fill="black"/>
<path d="M116.065 47.9851V44.1818H133.984V47.9851H127.305V66H122.745V47.9851H116.065ZM136.85 66V49.6364H141.388V66H136.85ZM139.13 47.527C138.455 47.527 137.876 47.3033 137.393 46.8558C136.918 46.4013 136.68 45.858 136.68 45.2259C136.68 44.6009 136.918 44.0646 137.393 43.6172C137.876 43.1626 138.455 42.9354 139.13 42.9354C139.805 42.9354 140.38 43.1626 140.856 43.6172C141.339 44.0646 141.58 44.6009 141.58 45.2259C141.58 45.858 141.339 46.4013 140.856 46.8558C140.38 47.3033 139.805 47.527 139.13 47.527ZM149.562 56.5398V66H145.024V49.6364H149.349V52.5234H149.541C149.903 51.5717 150.51 50.8189 151.363 50.2649C152.215 49.7038 153.248 49.4233 154.463 49.4233C155.599 49.4233 156.59 49.6719 157.435 50.169C158.28 50.6662 158.937 51.3764 159.406 52.2997C159.875 53.2159 160.109 54.3097 160.109 55.581V66H155.571V56.3906C155.578 55.3892 155.322 54.608 154.804 54.0469C154.285 53.4787 153.572 53.1946 152.662 53.1946C152.052 53.1946 151.512 53.326 151.043 53.5888C150.581 53.8516 150.219 54.2351 149.956 54.7393C149.701 55.2365 149.569 55.8366 149.562 56.5398ZM165.902 72.1364C165.327 72.1364 164.787 72.0902 164.283 71.9979C163.786 71.9126 163.374 71.8026 163.047 71.6676L164.07 68.2798C164.602 68.4432 165.082 68.532 165.508 68.5462C165.941 68.5604 166.314 68.4609 166.626 68.2479C166.946 68.0348 167.205 67.6726 167.404 67.1612L167.67 66.4688L161.8 49.6364H166.573L169.961 61.6534H170.131L173.551 49.6364H178.356L171.996 67.7685C171.69 68.6491 171.275 69.4162 170.749 70.0696C170.231 70.7301 169.574 71.2379 168.778 71.593C167.983 71.9553 167.024 72.1364 165.902 72.1364ZM186.876 47.9851V44.1818H204.795V47.9851H198.115V66H193.556V47.9851H186.876ZM207.746 66V44.1818H216.354C218.009 44.1818 219.419 44.4979 220.583 45.13C221.748 45.755 222.636 46.625 223.247 47.7401C223.865 48.848 224.173 50.1264 224.173 51.5753C224.173 53.0241 223.861 54.3026 223.236 55.4105C222.611 56.5185 221.705 57.3814 220.519 57.9993C219.34 58.6172 217.913 58.9261 216.237 58.9261H210.75V55.2294H215.491C216.379 55.2294 217.11 55.0767 217.686 54.7713C218.268 54.4588 218.701 54.0291 218.985 53.4822C219.276 52.9283 219.422 52.2926 219.422 51.5753C219.422 50.8509 219.276 50.2187 218.985 49.679C218.701 49.1321 218.268 48.7095 217.686 48.4112C217.103 48.1058 216.365 47.9531 215.47 47.9531H212.359V66H207.746ZM231.112 44.1818L236.385 60.7585H236.587L241.871 44.1818H246.985L239.464 66H233.519L225.987 44.1818H231.112Z" fill="black"/>
<path d="M54.4355 36.6748C47.2179 39.0187 42 45.7988 42 53.7979H15C15 44.295 18.0082 35.0357 23.5938 27.3477C29.1794 19.6596 37.056 13.9367 46.0938 11L54.4355 36.6748Z" fill="#04BD04"/>
<path d="M42.0552 56.6301C42.7211 63.445 47.4387 69.6045 54.5192 71.9051C55.0218 72.0684 55.5263 72.2082 56.0313 72.3266L50.1769 97.9606C40.9243 95.8021 32.5612 90.8433 26.2868 83.7939C20.0124 76.7445 16.1487 67.9661 15.2492 58.7184L42.0552 56.6301Z" fill="#229CFF"/>
<path d="M56.4244 71.7502C63.3758 72.6005 70.4849 69.3264 74.2073 62.8789C74.4716 62.4213 74.7125 61.9564 74.9323 61.4865L99.403 72.897C95.3868 81.5097 88.7466 88.6295 80.4351 93.2367C72.1236 97.8438 62.567 99.7017 53.1348 98.5437L56.4244 71.7502Z" fill="#D6E410"/>
<path d="M73.7269 45.9861C70.4363 39.804 63.6767 35.8586 56.2601 36.5075C55.7337 36.5535 55.2147 36.6228 54.7037 36.7123L50.0149 10.1223C59.3736 8.4721 69.0144 9.82764 77.5557 13.9935C86.0969 18.1594 93.1003 24.922 97.5617 33.3126L73.7269 45.9861Z" fill="#AF10E4"/>
<path d="M109.065 52.0221L87.9991 66.0656L87.9989 39.3836L109.065 52.0221Z" fill="white" stroke="black"/>
</g>
<defs>
<clipPath id="clip0_80_28">
<rect width="300" height="110" fill="white"/>
</clipPath>
</defs>
</svg>
