<svg width="430" height="333" viewBox="0 0 430 333" fill="none" xmlns="http://www.w3.org/2000/svg">
<g clip-path="url(#clip0_80_45)">
<path d="M316.759 310V301.273H318.574V304.554H318.629C318.709 304.378 318.824 304.199 318.974 304.017C319.128 303.832 319.327 303.679 319.571 303.557C319.818 303.432 320.125 303.369 320.491 303.369C320.969 303.369 321.409 303.494 321.812 303.744C322.216 303.991 322.538 304.365 322.78 304.865C323.021 305.362 323.142 305.986 323.142 306.736C323.142 307.466 323.024 308.082 322.788 308.585C322.555 309.085 322.237 309.464 321.834 309.723C321.433 309.979 320.984 310.107 320.487 310.107C320.135 310.107 319.835 310.048 319.588 309.932C319.344 309.815 319.143 309.669 318.987 309.493C318.831 309.314 318.712 309.134 318.629 308.952H318.548V310H316.759ZM318.536 306.727C318.536 307.116 318.589 307.456 318.697 307.746C318.805 308.036 318.962 308.261 319.166 308.423C319.371 308.582 319.619 308.662 319.912 308.662C320.207 308.662 320.457 308.581 320.662 308.419C320.866 308.254 321.021 308.027 321.126 307.737C321.234 307.445 321.288 307.108 321.288 306.727C321.288 306.349 321.236 306.017 321.131 305.73C321.026 305.443 320.871 305.219 320.666 305.057C320.462 304.895 320.21 304.814 319.912 304.814C319.616 304.814 319.366 304.892 319.162 305.048C318.96 305.205 318.805 305.426 318.697 305.713C318.589 306 318.536 306.338 318.536 306.727ZM325.263 312.455C325.033 312.455 324.817 312.436 324.615 312.399C324.417 312.365 324.252 312.321 324.121 312.267L324.53 310.912C324.743 310.977 324.935 311.013 325.105 311.018C325.279 311.024 325.428 310.984 325.553 310.899C325.681 310.814 325.784 310.669 325.864 310.464L325.971 310.188L323.623 303.455H325.532L326.887 308.261H326.955L328.323 303.455H330.245L327.701 310.707C327.578 311.06 327.412 311.366 327.202 311.628C326.995 311.892 326.732 312.095 326.414 312.237C326.096 312.382 325.712 312.455 325.263 312.455ZM333.985 301.273H336.261L338.664 307.136H338.766L341.17 301.273H343.445V310H341.656V304.32H341.583L339.325 309.957H338.106L335.847 304.298H335.775V310H333.985V301.273ZM344.931 310V303.455H346.747V310H344.931ZM345.843 302.611C345.574 302.611 345.342 302.521 345.149 302.342C344.958 302.161 344.863 301.943 344.863 301.69C344.863 301.44 344.958 301.226 345.149 301.047C345.342 300.865 345.574 300.774 345.843 300.774C346.113 300.774 346.343 300.865 346.534 301.047C346.727 301.226 346.824 301.44 346.824 301.69C346.824 301.943 346.727 302.161 346.534 302.342C346.343 302.521 346.113 302.611 345.843 302.611ZM349.846 308.116L349.85 305.939H350.114L352.211 303.455H354.295L351.478 306.744H351.048L349.846 308.116ZM348.201 310V301.273H350.016V310H348.201ZM352.292 310L350.366 307.149L351.576 305.866L354.418 310H352.292ZM357.899 310.128C357.225 310.128 356.646 309.991 356.16 309.719C355.677 309.443 355.305 309.054 355.044 308.551C354.782 308.045 354.652 307.447 354.652 306.757C354.652 306.084 354.782 305.493 355.044 304.984C355.305 304.476 355.673 304.08 356.147 303.795C356.625 303.511 357.184 303.369 357.826 303.369C358.258 303.369 358.66 303.439 359.032 303.578C359.407 303.714 359.734 303.92 360.012 304.196C360.294 304.472 360.512 304.818 360.669 305.236C360.825 305.651 360.903 306.136 360.903 306.693V307.192H355.376V306.067H359.194C359.194 305.805 359.137 305.574 359.024 305.372C358.91 305.17 358.752 305.013 358.551 304.899C358.352 304.783 358.12 304.724 357.856 304.724C357.581 304.724 357.336 304.788 357.123 304.916C356.913 305.041 356.748 305.21 356.629 305.423C356.51 305.634 356.449 305.868 356.446 306.126V307.196C356.446 307.52 356.505 307.8 356.625 308.036C356.747 308.271 356.919 308.453 357.14 308.581C357.362 308.709 357.625 308.773 357.929 308.773C358.13 308.773 358.315 308.744 358.483 308.688C358.65 308.631 358.794 308.545 358.913 308.432C359.032 308.318 359.123 308.179 359.186 308.014L360.865 308.125C360.779 308.528 360.605 308.881 360.341 309.182C360.079 309.48 359.741 309.713 359.326 309.881C358.914 310.045 358.439 310.128 357.899 310.128ZM363.903 301.273V310H362.088V301.273H363.903ZM368.075 310V308.905L372.43 302.794H368.066V301.273H374.748V302.368L370.389 308.479H374.757V310H368.075ZM378.005 310.124C377.587 310.124 377.215 310.051 376.888 309.906C376.562 309.759 376.303 309.541 376.113 309.254C375.925 308.964 375.832 308.604 375.832 308.172C375.832 307.808 375.898 307.503 376.032 307.256C376.165 307.009 376.347 306.81 376.577 306.659C376.808 306.509 377.069 306.395 377.362 306.318C377.657 306.241 377.967 306.188 378.29 306.156C378.671 306.116 378.978 306.08 379.211 306.045C379.444 306.009 379.613 305.955 379.718 305.884C379.823 305.812 379.876 305.707 379.876 305.568V305.543C379.876 305.273 379.79 305.064 379.62 304.916C379.452 304.768 379.214 304.695 378.904 304.695C378.577 304.695 378.317 304.767 378.124 304.912C377.931 305.054 377.803 305.233 377.741 305.449L376.062 305.312C376.147 304.915 376.315 304.571 376.565 304.281C376.815 303.989 377.137 303.764 377.532 303.608C377.93 303.449 378.39 303.369 378.913 303.369C379.276 303.369 379.624 303.412 379.957 303.497C380.292 303.582 380.589 303.714 380.847 303.893C381.109 304.072 381.315 304.303 381.465 304.584C381.616 304.862 381.691 305.196 381.691 305.585V310H379.969V309.092H379.918C379.813 309.297 379.673 309.477 379.496 309.634C379.32 309.787 379.109 309.908 378.862 309.996C378.614 310.081 378.329 310.124 378.005 310.124ZM378.525 308.871C378.792 308.871 379.028 308.818 379.232 308.713C379.437 308.605 379.597 308.46 379.714 308.278C379.83 308.097 379.888 307.891 379.888 307.661V306.966C379.832 307.003 379.754 307.037 379.654 307.068C379.558 307.097 379.448 307.124 379.326 307.149C379.204 307.172 379.082 307.193 378.96 307.213C378.837 307.23 378.727 307.246 378.627 307.26C378.414 307.291 378.228 307.341 378.069 307.409C377.91 307.477 377.786 307.57 377.698 307.686C377.61 307.8 377.566 307.942 377.566 308.112C377.566 308.359 377.656 308.548 377.835 308.679C378.016 308.807 378.246 308.871 378.525 308.871ZM383.134 310V301.273H384.949V304.554H385.004C385.084 304.378 385.199 304.199 385.349 304.017C385.503 303.832 385.702 303.679 385.946 303.557C386.193 303.432 386.5 303.369 386.866 303.369C387.344 303.369 387.784 303.494 388.188 303.744C388.591 303.991 388.913 304.365 389.155 304.865C389.396 305.362 389.517 305.986 389.517 306.736C389.517 307.466 389.399 308.082 389.163 308.585C388.93 309.085 388.612 309.464 388.209 309.723C387.808 309.979 387.359 310.107 386.862 310.107C386.51 310.107 386.21 310.048 385.963 309.932C385.719 309.815 385.518 309.669 385.362 309.493C385.206 309.314 385.087 309.134 385.004 308.952H384.923V310H383.134ZM384.911 306.727C384.911 307.116 384.964 307.456 385.072 307.746C385.18 308.036 385.337 308.261 385.541 308.423C385.746 308.582 385.994 308.662 386.287 308.662C386.582 308.662 386.832 308.581 387.037 308.419C387.241 308.254 387.396 308.027 387.501 307.737C387.609 307.445 387.663 307.108 387.663 306.727C387.663 306.349 387.611 306.017 387.506 305.73C387.401 305.443 387.246 305.219 387.041 305.057C386.837 304.895 386.585 304.814 386.287 304.814C385.991 304.814 385.741 304.892 385.537 305.048C385.335 305.205 385.18 305.426 385.072 305.713C384.964 306 384.911 306.338 384.911 306.727ZM392.595 310.124C392.177 310.124 391.805 310.051 391.478 309.906C391.152 309.759 390.893 309.541 390.703 309.254C390.515 308.964 390.422 308.604 390.422 308.172C390.422 307.808 390.488 307.503 390.622 307.256C390.755 307.009 390.937 306.81 391.167 306.659C391.397 306.509 391.659 306.395 391.951 306.318C392.247 306.241 392.556 306.188 392.88 306.156C393.261 306.116 393.568 306.08 393.801 306.045C394.034 306.009 394.203 305.955 394.308 305.884C394.413 305.812 394.466 305.707 394.466 305.568V305.543C394.466 305.273 394.38 305.064 394.21 304.916C394.042 304.768 393.804 304.695 393.494 304.695C393.167 304.695 392.907 304.767 392.714 304.912C392.521 305.054 392.393 305.233 392.331 305.449L390.652 305.312C390.737 304.915 390.904 304.571 391.154 304.281C391.404 303.989 391.727 303.764 392.122 303.608C392.52 303.449 392.98 303.369 393.502 303.369C393.866 303.369 394.214 303.412 394.547 303.497C394.882 303.582 395.179 303.714 395.437 303.893C395.699 304.072 395.904 304.303 396.055 304.584C396.206 304.862 396.281 305.196 396.281 305.585V310H394.559V309.092H394.508C394.403 309.297 394.262 309.477 394.086 309.634C393.91 309.787 393.699 309.908 393.451 309.996C393.204 310.081 392.919 310.124 392.595 310.124ZM393.115 308.871C393.382 308.871 393.618 308.818 393.822 308.713C394.027 308.605 394.187 308.46 394.304 308.278C394.42 308.097 394.478 307.891 394.478 307.661V306.966C394.422 307.003 394.343 307.037 394.244 307.068C394.147 307.097 394.038 307.124 393.916 307.149C393.794 307.172 393.672 307.193 393.549 307.213C393.427 307.23 393.316 307.246 393.217 307.26C393.004 307.291 392.818 307.341 392.659 307.409C392.5 307.477 392.376 307.57 392.288 307.686C392.2 307.8 392.156 307.942 392.156 308.112C392.156 308.359 392.245 308.548 392.424 308.679C392.606 308.807 392.836 308.871 393.115 308.871ZM399.505 301.273V310H397.689V301.273H399.505ZM403.942 310.128C403.268 310.128 402.689 309.991 402.203 309.719C401.72 309.443 401.348 309.054 401.087 308.551C400.825 308.045 400.695 307.447 400.695 306.757C400.695 306.084 400.825 305.493 401.087 304.984C401.348 304.476 401.716 304.08 402.19 303.795C402.668 303.511 403.227 303.369 403.869 303.369C404.301 303.369 404.703 303.439 405.075 303.578C405.45 303.714 405.777 303.92 406.055 304.196C406.337 304.472 406.555 304.818 406.712 305.236C406.868 305.651 406.946 306.136 406.946 306.693V307.192H401.419V306.067H405.237C405.237 305.805 405.18 305.574 405.067 305.372C404.953 305.17 404.795 305.013 404.594 304.899C404.395 304.783 404.163 304.724 403.899 304.724C403.624 304.724 403.379 304.788 403.166 304.916C402.956 305.041 402.791 305.21 402.672 305.423C402.553 305.634 402.491 305.868 402.489 306.126V307.196C402.489 307.52 402.548 307.8 402.668 308.036C402.79 308.271 402.962 308.453 403.183 308.581C403.405 308.709 403.668 308.773 403.972 308.773C404.173 308.773 404.358 308.744 404.526 308.688C404.693 308.631 404.837 308.545 404.956 308.432C405.075 308.318 405.166 308.179 405.229 308.014L406.908 308.125C406.822 308.528 406.648 308.881 406.384 309.182C406.122 309.48 405.784 309.713 405.369 309.881C404.957 310.045 404.482 310.128 403.942 310.128ZM411.612 303.455V304.818H407.67V303.455H411.612ZM408.565 301.886H410.381V307.989C410.381 308.156 410.406 308.287 410.457 308.381C410.509 308.472 410.58 308.536 410.67 308.572C410.764 308.609 410.872 308.628 410.994 308.628C411.08 308.628 411.165 308.621 411.25 308.607C411.335 308.589 411.401 308.577 411.446 308.568L411.732 309.919C411.641 309.947 411.513 309.98 411.348 310.017C411.183 310.057 410.983 310.081 410.747 310.089C410.31 310.107 409.926 310.048 409.597 309.915C409.27 309.781 409.016 309.574 408.834 309.293C408.652 309.011 408.563 308.656 408.565 308.227V301.886ZM414.661 310.124C414.244 310.124 413.871 310.051 413.545 309.906C413.218 309.759 412.96 309.541 412.769 309.254C412.582 308.964 412.488 308.604 412.488 308.172C412.488 307.808 412.555 307.503 412.688 307.256C412.822 307.009 413.004 306.81 413.234 306.659C413.464 306.509 413.725 306.395 414.018 306.318C414.313 306.241 414.623 306.188 414.947 306.156C415.327 306.116 415.634 306.08 415.867 306.045C416.1 306.009 416.269 305.955 416.374 305.884C416.479 305.812 416.532 305.707 416.532 305.568V305.543C416.532 305.273 416.447 305.064 416.276 304.916C416.109 304.768 415.87 304.695 415.56 304.695C415.234 304.695 414.974 304.767 414.781 304.912C414.587 305.054 414.46 305.233 414.397 305.449L412.718 305.312C412.803 304.915 412.971 304.571 413.221 304.281C413.471 303.989 413.793 303.764 414.188 303.608C414.586 303.449 415.046 303.369 415.569 303.369C415.933 303.369 416.281 303.412 416.613 303.497C416.948 303.582 417.245 303.714 417.504 303.893C417.765 304.072 417.971 304.303 418.121 304.584C418.272 304.862 418.347 305.196 418.347 305.585V310H416.626V309.092H416.575C416.469 309.297 416.329 309.477 416.153 309.634C415.977 309.787 415.765 309.908 415.518 309.996C415.271 310.081 414.985 310.124 414.661 310.124ZM415.181 308.871C415.448 308.871 415.684 308.818 415.888 308.713C416.093 308.605 416.254 308.46 416.37 308.278C416.487 308.097 416.545 307.891 416.545 307.661V306.966C416.488 307.003 416.41 307.037 416.31 307.068C416.214 307.097 416.104 307.124 415.982 307.149C415.86 307.172 415.738 307.193 415.616 307.213C415.494 307.23 415.383 307.246 415.283 307.26C415.07 307.291 414.884 307.341 414.725 307.409C414.566 307.477 414.442 307.57 414.354 307.686C414.266 307.8 414.222 307.942 414.222 308.112C414.222 308.359 414.312 308.548 414.491 308.679C414.673 308.807 414.903 308.871 415.181 308.871Z" fill="black"/>
<path d="M131.278 259.382V254.818H152.781V259.382H144.766V281H139.294V259.382H131.278ZM156.22 281V261.364H161.666V281H156.22ZM158.956 258.832C158.146 258.832 157.452 258.564 156.872 258.027C156.301 257.482 156.016 256.83 156.016 256.071C156.016 255.321 156.301 254.678 156.872 254.141C157.452 253.595 158.146 253.322 158.956 253.322C159.766 253.322 160.456 253.595 161.027 254.141C161.607 254.678 161.896 255.321 161.896 256.071C161.896 256.83 161.607 257.482 161.027 258.027C160.456 258.564 159.766 258.832 158.956 258.832ZM171.475 269.648V281H166.029V261.364H171.219V264.828H171.449C171.884 263.686 172.613 262.783 173.635 262.118C174.658 261.445 175.898 261.108 177.355 261.108C178.719 261.108 179.908 261.406 180.922 262.003C181.936 262.599 182.725 263.452 183.287 264.56C183.85 265.659 184.131 266.972 184.131 268.497V281H178.685V269.469C178.694 268.267 178.387 267.33 177.765 266.656C177.142 265.974 176.286 265.634 175.195 265.634C174.462 265.634 173.814 265.791 173.252 266.107C172.698 266.422 172.263 266.882 171.948 267.487C171.641 268.084 171.483 268.804 171.475 269.648ZM191.082 288.364C190.392 288.364 189.744 288.308 189.139 288.197C188.543 288.095 188.048 287.963 187.656 287.801L188.884 283.736C189.523 283.932 190.098 284.038 190.609 284.055C191.129 284.072 191.577 283.953 191.952 283.697C192.335 283.442 192.646 283.007 192.885 282.393L193.205 281.562L186.161 261.364H191.888L195.953 275.784H196.158L200.261 261.364H206.027L198.395 283.122C198.028 284.179 197.53 285.099 196.899 285.884C196.277 286.676 195.489 287.286 194.534 287.712C193.58 288.146 192.429 288.364 191.082 288.364ZM216.251 259.382V254.818H237.754V259.382H229.738V281H224.267V259.382H216.251ZM241.295 281V254.818H251.625C253.61 254.818 255.302 255.197 256.7 255.956C258.098 256.706 259.163 257.75 259.896 259.088C260.637 260.418 261.008 261.952 261.008 263.69C261.008 265.429 260.633 266.963 259.883 268.293C259.133 269.622 258.047 270.658 256.623 271.399C255.208 272.141 253.495 272.511 251.484 272.511H244.9V268.075H250.589C251.654 268.075 252.532 267.892 253.223 267.526C253.922 267.151 254.441 266.635 254.782 265.979C255.132 265.314 255.306 264.551 255.306 263.69C255.306 262.821 255.132 262.062 254.782 261.415C254.441 260.759 253.922 260.251 253.223 259.893C252.524 259.527 251.637 259.344 250.564 259.344H246.831V281H241.295ZM269.334 254.818L275.662 274.71H275.905L282.246 254.818H288.382L279.357 281H272.223L263.185 254.818H269.334Z" fill="black"/>
<path d="M205.604 89.9071C187.556 95.5538 174.509 111.889 174.509 131.162H107.002C107.002 108.266 114.524 85.9569 128.489 67.4335C142.455 48.91 162.148 35.1221 184.745 28.0468L205.604 89.9071Z" fill="#04BD04"/>
<path d="M174.649 137.986C176.314 154.405 188.107 169.246 205.81 174.789C207.066 175.183 208.328 175.518 209.591 175.803L194.953 237.566C171.819 232.366 150.91 220.417 135.222 203.432C119.535 186.447 109.874 165.299 107.625 143.018L174.649 137.986Z" fill="#229CFF"/>
<path d="M210.575 174.414C227.955 176.462 245.728 168.576 255.035 153.042C255.696 151.939 256.298 150.819 256.847 149.686L318.03 177.178C307.989 197.929 291.388 215.085 270.607 226.185C249.826 237.285 225.931 241.761 202.348 238.971L210.575 174.414Z" fill="#D6E410"/>
<path d="M253.832 112.341C245.605 97.447 228.706 87.9407 210.163 89.504C208.847 89.615 207.549 89.7821 206.271 89.9978L194.548 25.9333C217.947 21.9574 242.052 25.2221 263.407 35.2592C284.763 45.2963 302.273 61.5902 313.427 81.8064L253.832 112.341Z" fill="#AF10E4"/>
<path d="M289.007 96.8396L345.013 127.521L289.006 162.1L289.007 96.8396Z" fill="white" stroke="black"/>
</g>
<defs>
<clipPath id="clip0_80_45">
<rect width="430" height="333" fill="white"/>
</clipPath>
</defs>
</svg>
