<svg width="256" height="256" viewBox="0 0 256 256" fill="none" xmlns="http://www.w3.org/2000/svg">
<mask id="path-1-inside-1_80_252" fill="white">
<path d="M90 118.147H89.9082C88.8957 112.178 79.4746 107.5 68 107.5C56.5254 107.5 47.1043 112.178 46.0918 118.147H46L46 158.929H90L90 118.147Z"/>
</mask>
<path d="M90 118.147H89.9082C88.8957 112.178 79.4746 107.5 68 107.5C56.5254 107.5 47.1043 112.178 46.0918 118.147H46L46 158.929H90L90 118.147Z" fill="#072B31" fill-opacity="0.5"/>
<path d="M90 118.147V113.147H95V118.147H90ZM89.9082 118.147V123.147H85.6849L84.9786 118.983L89.9082 118.147ZM68 107.5L68 102.5H68L68 107.5ZM46.0918 118.147L51.0214 118.983L50.3151 123.147H46.0918V118.147ZM46 118.147L41 118.147L41 113.147H46V118.147ZM46 158.929V163.929H41L41 158.929H46ZM90 158.929H95L95 163.929H90V158.929ZM90 118.147V123.147H89.9082V118.147V113.147H90V118.147ZM89.9082 118.147L84.9786 118.983C84.8683 118.333 84.0013 116.701 80.6803 115.076C77.5596 113.55 73.1103 112.5 68 112.5L68 107.5L68 102.5C74.3643 102.5 80.3629 103.789 85.0745 106.094C89.5858 108.3 93.9356 111.992 94.8378 117.311L89.9082 118.147ZM68 107.5V112.5C62.8897 112.5 58.4404 113.55 55.3197 115.076C51.9987 116.701 51.1317 118.333 51.0214 118.983L46.0918 118.147L41.1622 117.311C42.0644 111.992 46.4142 108.3 50.9255 106.094C55.6371 103.789 61.6357 102.5 68 102.5V107.5ZM46.0918 118.147V123.147H46V118.147V113.147H46.0918V118.147ZM46 118.147L51 118.147L51 158.929H46H41L41 118.147L46 118.147ZM46 158.929V153.929H90V158.929V163.929H46V158.929ZM90 158.929L85 158.929L85 118.147L90 118.147H95L95 158.929H90Z" fill="black" mask="url(#path-1-inside-1_80_252)"/>
<circle cx="67.6786" cy="87.6786" r="15.1786" fill="#072B31" fill-opacity="0.5" stroke="black" stroke-width="5"/>
<mask id="path-4-inside-2_80_252" fill="white">
<path d="M166 118.147H166.092C167.104 112.178 176.525 107.5 188 107.5C199.475 107.5 208.896 112.178 209.908 118.147H210V158.929H166V118.147Z"/>
</mask>
<path d="M166 118.147H166.092C167.104 112.178 176.525 107.5 188 107.5C199.475 107.5 208.896 112.178 209.908 118.147H210V158.929H166V118.147Z" fill="#04BD04"/>
<path d="M166 118.147V113.147H161V118.147H166ZM166.092 118.147V123.147H170.315L171.021 118.983L166.092 118.147ZM188 107.5L188 102.5H188L188 107.5ZM209.908 118.147L204.979 118.983L205.685 123.147H209.908V118.147ZM210 118.147H215V113.147H210V118.147ZM210 158.929V163.929H215V158.929H210ZM166 158.929H161V163.929H166V158.929ZM166 118.147V123.147H166.092V118.147V113.147H166V118.147ZM166.092 118.147L171.021 118.983C171.132 118.333 171.999 116.701 175.32 115.076C178.44 113.55 182.89 112.5 188 112.5L188 107.5L188 102.5C181.636 102.5 175.637 103.789 170.926 106.094C166.414 108.3 162.064 111.992 161.162 117.311L166.092 118.147ZM188 107.5V112.5C193.11 112.5 197.56 113.55 200.68 115.076C204.001 116.701 204.868 118.333 204.979 118.983L209.908 118.147L214.838 117.311C213.936 111.992 209.586 108.3 205.074 106.094C200.363 103.789 194.364 102.5 188 102.5V107.5ZM209.908 118.147V123.147H210V118.147V113.147H209.908V118.147ZM210 118.147H205V158.929H210H215V118.147H210ZM210 158.929V153.929H166V158.929V163.929H210V158.929ZM166 158.929H171V118.147H166H161V158.929H166Z" fill="black" mask="url(#path-4-inside-2_80_252)"/>
<circle cx="17.6786" cy="17.6786" r="15.1786" transform="matrix(-1 0 0 1 206 70)" fill="#04BD04" stroke="black" stroke-width="5"/>
<path d="M142.396 61.3334C141.042 60 136.979 57.3334 130.208 57.3334C120.371 57.3334 115.828 63.4137 114.441 70.6667M142.396 90.6667C141.042 92 136.979 94.6667 130.208 94.6667C120.371 94.6667 115.828 88.5864 114.441 81.3334M114.441 70.6667C114.109 72.3998 113.958 74.1999 113.958 76C113.958 77.8001 114.109 79.6002 114.441 81.3334M114.441 70.6667H105.833M114.441 70.6667H132.917M114.441 81.3334H105.833H132.917" stroke="black" stroke-width="5"/>
<mask id="path-8-inside-3_80_252" fill="white">
<path d="M184.39 58.6518C167.988 45.9664 147.193 39.3491 125.937 40.0505C104.681 40.752 84.4352 48.7236 69.0269 62.4588L72.7891 66.1625C87.2308 53.289 106.206 45.8174 126.129 45.1599C146.052 44.5025 165.542 50.7047 180.915 62.5944L184.39 58.6518Z"/>
</mask>
<path d="M184.39 58.6518C167.988 45.9664 147.193 39.3491 125.937 40.0505C104.681 40.752 84.4352 48.7236 69.0269 62.4588L72.7891 66.1625C87.2308 53.289 106.206 45.8174 126.129 45.1599C146.052 44.5025 165.542 50.7047 180.915 62.5944L184.39 58.6518Z" stroke="black" stroke-width="10" stroke-dasharray="10 10" mask="url(#path-8-inside-3_80_252)"/>
<path d="M186.167 64.746L170.081 63.3386L179.334 50.2055L186.167 64.746Z" fill="black" stroke="black" stroke-width="5"/>
<mask id="path-10-inside-4_80_252" fill="white">
<path d="M69.6104 181.348C86.0123 194.034 106.807 200.651 128.063 199.949C149.319 199.248 169.565 191.276 184.973 177.541L181.211 173.837C166.769 186.711 147.794 194.183 127.871 194.84C107.948 195.498 88.458 189.295 73.0851 177.406L69.6104 181.348Z"/>
</mask>
<path d="M69.6104 181.348C86.0123 194.034 106.807 200.651 128.063 199.949C149.319 199.248 169.565 191.276 184.973 177.541L181.211 173.837C166.769 186.711 147.794 194.183 127.871 194.84C107.948 195.498 88.458 189.295 73.0851 177.406L69.6104 181.348Z" stroke="black" stroke-width="10" stroke-dasharray="10 10" mask="url(#path-10-inside-4_80_252)"/>
<path d="M62.2664 174.622H78.4138L70.3406 188.511L62.2664 174.622Z" fill="black" stroke="black" stroke-width="5"/>
<rect x="102.5" y="130.5" width="53" height="56" rx="7.5" fill="white" stroke="black" stroke-width="5"/>
<path d="M121.75 140.878L146.4 140.918" stroke="black" stroke-width="5" stroke-linecap="round" stroke-linejoin="round"/>
<path d="M121.75 152.4H146.4" stroke="black" stroke-width="5" stroke-linecap="round" stroke-linejoin="round"/>
<path d="M121.75 163.922L146.4 163.882" stroke="black" stroke-width="5" stroke-linecap="round" stroke-linejoin="round"/>
<path d="M121.75 176.8L146.4 176.8" stroke="black" stroke-width="5" stroke-linecap="round" stroke-linejoin="round"/>
<rect x="103.625" y="130.711" width="50.75" height="4.74444" rx="2.37222" fill="#04BD04"/>
<rect x="108.975" y="150.011" width="5.975" height="4.77778" stroke="black" stroke-width="2"/>
<rect x="108.975" y="161.533" width="5.975" height="4.77778" stroke="black" stroke-width="2"/>
<rect x="108.975" y="173.733" width="5.975" height="4.77778" stroke="black" stroke-width="2"/>
</svg>
