<svg width="256" height="256" viewBox="0 0 256 256" fill="none" xmlns="http://www.w3.org/2000/svg">
<path d="M126 159L150.48 143.701L151.489 172.551L126 159ZM190 159H192.5V161.516L189.984 161.5L190 159ZM190 93L204.434 118H175.566L190 93ZM133.987 158.853L133.973 156.354C135.577 156.344 137.372 156.338 139.314 156.334L139.319 158.834L139.324 161.334C137.386 161.338 135.598 161.344 134.001 161.353L133.987 158.853ZM144.66 158.83L144.661 156.33C146.376 156.33 148.161 156.331 149.995 156.334L149.992 158.834L149.988 161.334C148.156 161.331 146.373 161.33 144.66 161.33L144.66 158.83ZM155.328 158.844L155.334 156.344C157.094 156.348 158.879 156.353 160.672 156.359L160.664 158.859L160.656 161.359C158.864 161.353 157.081 161.348 155.322 161.344L155.328 158.844ZM166 158.878L166.01 156.378C167.802 156.385 169.586 156.392 171.346 156.4L171.335 158.9L171.324 161.4C169.565 161.392 167.782 161.385 165.991 161.378L166 158.878ZM176.668 158.925L176.68 156.425C178.515 156.434 180.302 156.443 182.02 156.453L182.006 158.953L181.993 161.453C180.276 161.443 178.49 161.434 176.656 161.425L176.668 158.925ZM187.345 158.984L187.36 156.484C188.28 156.489 189.166 156.495 190.016 156.5L190 159L189.984 161.5C189.135 161.495 188.249 161.489 187.33 161.483L187.345 158.984ZM190 159H187.5V156.643H190H192.5V159H190ZM190 151.929H187.5V147.214H190H192.5V151.929H190ZM190 142.5H187.5V137.786H190H192.5V142.5H190ZM190 133.071H187.5V128.357H190H192.5V133.071H190ZM190 123.643H187.5V118.929H190H192.5V123.643H190ZM190 114.214H187.5V109.5H190H192.5V114.214H190ZM190 104.786H187.5V100.071H190H192.5V104.786H190Z" fill="black"/>
<path d="M199.792 41.6666C198.083 40 192.958 36.6666 184.417 36.6666C172.007 36.6666 166.275 44.267 164.525 53.3333M199.792 78.3333C198.083 80 192.958 83.3333 184.417 83.3333C172.007 83.3333 166.275 75.7329 164.525 66.6666M164.525 53.3333C164.107 55.4997 163.917 57.7498 163.917 60C163.917 62.2501 164.107 64.5002 164.525 66.6666M164.525 53.3333H153.667M164.525 53.3333H187.833M164.525 66.6666H153.667H187.833" stroke="black" stroke-width="5"/>
<rect x="32.5" y="112.5" width="85" height="80" rx="2.5" fill="white" stroke="black" stroke-width="5"/>
<rect x="41.25" y="118.5" width="67.5" height="14.875" rx="2" fill="#04BD04"/>
</svg>
