<svg width="256" height="256" viewBox="0 0 256 256" fill="none" xmlns="http://www.w3.org/2000/svg">
<mask id="path-1-inside-1_80_230" fill="white">
<path d="M65.9914 65.0538C81.6123 49.4328 106.939 49.4328 122.56 65.0538L131.045 73.5391L139.53 65.0538C155.151 49.4328 180.478 49.4328 196.099 65.0538L196.806 65.7609C212.427 81.3819 212.427 106.708 196.806 122.329L131.045 188.09L65.2843 122.329C49.6633 106.708 49.6633 81.3819 65.2843 65.7609L65.9914 65.0538Z"/>
</mask>
<path d="M65.9914 65.0538L62.4558 61.5183L65.9914 65.0538ZM131.045 73.5391L127.51 77.0746L131.045 80.6101L134.581 77.0746L131.045 73.5391ZM196.099 65.0538L199.635 61.5183L196.099 65.0538ZM196.806 65.7609L200.342 62.2254L196.806 65.7609ZM131.045 188.09L127.51 191.626L131.045 195.161L134.581 191.626L131.045 188.09ZM65.2843 65.7609L61.7487 62.2254L65.2843 65.7609ZM65.9914 65.0538L69.5269 68.5893C83.1953 54.921 105.356 54.921 119.024 68.5893L122.56 65.0538L126.095 61.5183C108.522 43.9447 80.0294 43.9447 62.4558 61.5183L65.9914 65.0538ZM122.56 65.0538L119.024 68.5893L127.51 77.0746L131.045 73.5391L134.581 70.0035L126.095 61.5183L122.56 65.0538ZM131.045 73.5391L134.581 77.0746L143.066 68.5893L139.53 65.0538L135.995 61.5183L127.51 70.0035L131.045 73.5391ZM139.53 65.0538L143.066 68.5893C156.734 54.921 178.895 54.921 192.563 68.5893L196.099 65.0538L199.635 61.5183C182.061 43.9447 153.569 43.9447 135.995 61.5183L139.53 65.0538ZM196.099 65.0538L192.563 68.5893L193.271 69.2964L196.806 65.7609L200.342 62.2254L199.635 61.5183L196.099 65.0538ZM196.806 65.7609L193.271 69.2964C206.939 82.9648 206.939 105.126 193.271 118.794L196.806 122.329L200.342 125.865C217.915 108.291 217.915 79.799 200.342 62.2254L196.806 65.7609ZM196.806 122.329L193.271 118.794L127.51 184.555L131.045 188.09L134.581 191.626L200.342 125.865L196.806 122.329ZM131.045 188.09L134.581 184.555L68.8198 118.794L65.2843 122.329L61.7487 125.865L127.51 191.626L131.045 188.09ZM65.2843 122.329L68.8198 118.794C55.1515 105.126 55.1515 82.9648 68.8198 69.2964L65.2843 65.7609L61.7487 62.2254C44.1751 79.799 44.1751 108.291 61.7487 125.865L65.2843 122.329ZM65.2843 65.7609L68.8198 69.2964L69.5269 68.5893L65.9914 65.0538L62.4558 61.5183L61.7487 62.2254L65.2843 65.7609Z" fill="black" mask="url(#path-1-inside-1_80_230)"/>
<mask id="path-3-inside-2_80_230" fill="white">
<path d="M94 169.098H93.8955C92.7444 165.119 82.0389 162 69 162C55.9611 162 45.2557 165.119 44.1045 169.098H44V196.286H94V169.098Z"/>
</mask>
<path d="M94 169.098H93.8955C92.7444 165.119 82.0389 162 69 162C55.9611 162 45.2557 165.119 44.1045 169.098H44V196.286H94V169.098Z" fill="#072B31" fill-opacity="0.5"/>
<path d="M94 169.098V164.098H99V169.098H94ZM93.8955 169.098V174.098H90.1369L89.0924 170.488L93.8955 169.098ZM44.1045 169.098L48.9076 170.488L47.8631 174.098H44.1045V169.098ZM44 169.098H39V164.098H44L44 169.098ZM44 196.286V201.286H39V196.286H44ZM94 196.286H99V201.286H94V196.286ZM94 169.098V174.098H93.8955V169.098V164.098H94V169.098ZM93.8955 169.098L89.0924 170.488C89.3131 171.251 89.6815 171.159 88.7119 170.555C87.8714 170.032 86.4926 169.427 84.5263 168.863C80.6234 167.742 75.1681 167 69 167V162V157C75.8708 157 82.2877 157.816 87.285 159.251C89.7688 159.964 92.0971 160.884 93.9952 162.065C95.7641 163.166 97.9023 164.956 98.6986 167.709L93.8955 169.098ZM69 162V167C62.8319 167 57.3766 167.742 53.4737 168.863C51.5073 169.427 50.1286 170.032 49.2881 170.555C48.3185 171.159 48.6869 171.251 48.9076 170.488L44.1045 169.098L39.3014 167.709C40.0977 164.956 42.2359 163.166 44.0048 162.065C45.9029 160.884 48.2312 159.964 50.715 159.251C55.7123 157.816 62.1292 157 69 157V162ZM44.1045 169.098V174.098H44V169.098L44 164.098H44.1045L44.1045 169.098ZM44 169.098H49V196.286H44H39V169.098H44ZM44 196.286V191.286H94V196.286V201.286H44V196.286ZM94 196.286H89V169.098H94H99V196.286H94Z" fill="black" mask="url(#path-3-inside-2_80_230)"/>
<path d="M68.6433 139.5C73.7714 139.5 77.9284 143.658 77.9284 148.786C77.9282 153.914 73.7713 158.071 68.6433 158.071C63.5151 158.071 59.3574 153.914 59.3571 148.786C59.3571 143.658 63.5149 139.5 68.6433 139.5Z" fill="#072B31" fill-opacity="0.5" stroke="black" stroke-width="5"/>
<mask id="path-6-inside-3_80_230" fill="white">
<path d="M218 169.098H217.896C216.744 165.119 206.039 162 193 162C179.961 162 169.256 165.119 168.104 169.098H168V196.286H218V169.098Z"/>
</mask>
<path d="M218 169.098H217.896C216.744 165.119 206.039 162 193 162C179.961 162 169.256 165.119 168.104 169.098H168V196.286H218V169.098Z" fill="#072B31" fill-opacity="0.5"/>
<path d="M218 169.098V164.098H223V169.098H218ZM217.896 169.098V174.098H214.137L213.092 170.488L217.896 169.098ZM168.104 169.098L172.908 170.488L171.863 174.098H168.104V169.098ZM168 169.098H163V164.098H168V169.098ZM168 196.286V201.286H163V196.286H168ZM218 196.286H223V201.286H218V196.286ZM218 169.098V174.098H217.896V169.098V164.098H218V169.098ZM217.896 169.098L213.092 170.488C213.313 171.251 213.681 171.159 212.712 170.555C211.871 170.032 210.493 169.427 208.526 168.863C204.623 167.742 199.168 167 193 167V162V157C199.871 157 206.288 157.816 211.285 159.251C213.769 159.964 216.097 160.884 217.995 162.065C219.764 163.166 221.902 164.956 222.699 167.709L217.896 169.098ZM193 162V167C186.832 167 181.377 167.742 177.474 168.863C175.507 169.427 174.129 170.032 173.288 170.555C172.319 171.159 172.687 171.251 172.908 170.488L168.104 169.098L163.301 167.709C164.098 164.956 166.236 163.166 168.005 162.065C169.903 160.884 172.231 159.964 174.715 159.251C179.712 157.816 186.129 157 193 157V162ZM168.104 169.098V174.098H168V169.098V164.098H168.104V169.098ZM168 169.098H173V196.286H168H163V169.098H168ZM168 196.286V191.286H218V196.286V201.286H168V196.286ZM218 196.286H213V169.098H218H223V196.286H218Z" fill="black" mask="url(#path-6-inside-3_80_230)"/>
<path d="M192.643 139.5C197.771 139.5 201.928 143.658 201.928 148.786C201.928 153.914 197.771 158.071 192.643 158.071C187.515 158.071 183.357 153.914 183.357 148.786C183.357 143.658 187.515 139.5 192.643 139.5Z" fill="#072B31" fill-opacity="0.5" stroke="black" stroke-width="5"/>
<mask id="path-9-inside-4_80_230" fill="white">
<path d="M168 156.147H167.844C166.117 150.178 150.058 145.5 130.5 145.5C110.942 145.5 94.8828 150.178 93.1562 156.147H93V196.929H168V156.147Z"/>
</mask>
<path d="M168 156.147H167.844C166.117 150.178 150.058 145.5 130.5 145.5C110.942 145.5 94.8828 150.178 93.1562 156.147H93V196.929H168V156.147Z" fill="#04BD04"/>
<path d="M168 156.147V151.147H173V156.147H168ZM167.844 156.147V161.147H164.085L163.041 157.537L167.844 156.147ZM130.5 145.5V140.5V145.5ZM93.1562 156.147L97.9594 157.537L96.915 161.147H93.1562V156.147ZM93 156.147H88V151.147H93V156.147ZM93 196.929V201.929H88V196.929H93ZM168 196.929H173V201.929H168V196.929ZM168 156.147V161.147H167.844V156.147V151.147H168V156.147ZM167.844 156.147L163.041 157.537C163.117 157.802 163.043 157.24 161.389 156.211C159.864 155.262 157.559 154.275 154.48 153.391C148.351 151.632 139.928 150.5 130.5 150.5V145.5V140.5C140.631 140.5 150.016 141.706 157.238 143.779C160.834 144.811 164.09 146.113 166.672 147.72C169.126 149.247 171.707 151.508 172.647 154.758L167.844 156.147ZM130.5 145.5V150.5C121.072 150.5 112.649 151.632 106.52 153.391C103.441 154.275 101.136 155.262 99.6107 156.211C97.9565 157.24 97.8825 157.802 97.9594 157.537L93.1562 156.147L88.3531 154.758C89.2932 151.508 91.8741 149.247 94.3276 147.72C96.9103 146.113 100.166 144.811 103.762 143.779C110.984 141.706 120.369 140.5 130.5 140.5V145.5ZM93.1562 156.147V161.147H93V156.147V151.147H93.1562V156.147ZM93 156.147H98V196.929H93H88V156.147H93ZM93 196.929V191.929H168V196.929V201.929H93V196.929ZM168 196.929H163V156.147H168H173V196.929H168Z" fill="black" mask="url(#path-9-inside-4_80_230)"/>
<circle cx="129.964" cy="125.679" r="15.1786" fill="#04BD04" stroke="black" stroke-width="5"/>
<line x1="90.5" y1="207" x2="90.5" y2="153" stroke="white" stroke-width="5"/>
<line x1="170.5" y1="210" x2="170.5" y2="156" stroke="white" stroke-width="5"/>
</svg>
